<svg width="110" height="28" viewBox="0 0 110 28" fill="none" xmlns="http://www.w3.org/2000/svg">
<path d="M37.5018 21.733C38.6063 22.2775 39.9287 22.5497 41.4688 22.5497C43.0867 22.5497 44.4791 22.2464 45.6458 21.6396C46.8126 21.0329 47.7304 20.224 48.3994 19.2128C49.0683 18.2016 49.4806 17.0893 49.6362 15.8758H46.2992C46.1125 17.0115 45.5758 17.8982 44.6891 18.536C43.8179 19.1583 42.7445 19.4695 41.4688 19.4695C40.5976 19.4695 39.8276 19.3217 39.1586 19.0261C38.5052 18.7305 37.953 18.3182 37.5018 17.7893C37.0507 17.2448 36.7084 16.6148 36.4751 15.8992C36.2573 15.1835 36.1484 14.4057 36.1484 13.5656C36.1484 12.6944 36.2573 11.901 36.4751 11.1854C36.7084 10.4698 37.0429 9.84754 37.4785 9.31861C37.9141 8.78967 38.4586 8.38519 39.1119 8.10517C39.7653 7.80959 40.5121 7.6618 41.3521 7.6618C42.1766 7.6618 42.9156 7.80181 43.569 8.08184C44.2224 8.3463 44.7591 8.75078 45.1791 9.29527C45.6147 9.8242 45.8947 10.4776 46.0192 11.2554H49.3561C49.2161 9.91755 48.8039 8.75078 48.1194 7.75514C47.4349 6.74395 46.517 5.9661 45.3658 5.42161C44.2302 4.86157 42.8923 4.58154 41.3521 4.58154C39.8742 4.58154 38.5908 4.83823 37.5018 5.35161C36.4284 5.84943 35.5416 6.51837 34.8416 7.35844C34.1415 8.19851 33.6204 9.13192 33.2781 10.1587C32.9514 11.1854 32.7881 12.2277 32.7881 13.2856V13.799C32.7881 14.7479 32.9514 15.7358 33.2781 16.7626C33.6048 17.7893 34.1104 18.7383 34.7949 19.6095C35.495 20.4806 36.3973 21.1885 37.5018 21.733Z" fill="#110B08"/>
<path fill-rule="evenodd" clip-rule="evenodd" d="M58.2895 20.5662C58.4499 20.2943 58.5821 19.9943 58.6862 19.6661V22.1063H61.2531V14.2424C61.2531 13.06 61.0275 12.1033 60.5764 11.3721C60.1408 10.6409 59.4874 10.1042 58.6162 9.76198C57.7606 9.41973 56.6794 9.2486 55.3726 9.2486C54.9526 9.2486 54.5014 9.25638 54.0192 9.27194C53.5525 9.27194 53.0935 9.28749 52.6424 9.31861C52.1913 9.34972 51.7868 9.38083 51.429 9.41195V12.1655C51.8646 12.1344 52.3546 12.1111 52.8991 12.0955C53.4591 12.0644 54.0114 12.0411 54.5559 12.0255C55.1004 12.0099 55.5671 12.0022 55.956 12.0022C56.7027 12.0022 57.255 12.1811 57.6128 12.5389C57.9706 12.8967 58.1495 13.4412 58.1495 14.1723V14.289H55.5593C54.4392 14.289 53.4591 14.4368 52.6191 14.7324C51.7946 15.028 51.1489 15.4713 50.6822 16.0625C50.2311 16.6537 50.0055 17.4159 50.0055 18.3494C50.0055 19.205 50.1922 19.9362 50.5656 20.5429C50.9545 21.1496 51.4912 21.6163 52.1757 21.943C52.8758 22.2697 53.6847 22.433 54.6026 22.433C55.4893 22.433 56.236 22.2775 56.8428 21.9663C57.465 21.6396 57.9473 21.1729 58.2895 20.5662ZM57.7062 19.0494C57.9706 18.6449 58.1184 18.1004 58.1495 17.4159V16.2259H55.5126C54.7659 16.2259 54.1903 16.4125 53.7858 16.7859C53.3969 17.1437 53.2024 17.6104 53.2024 18.186C53.2024 18.7616 53.3969 19.2283 53.7858 19.5861C54.1903 19.9439 54.7659 20.1228 55.5126 20.1228C55.9638 20.1228 56.376 20.0451 56.7494 19.8895C57.1383 19.7184 57.4572 19.4383 57.7062 19.0494Z" fill="#110B08"/>
<path d="M69.1846 22.5497C68.08 22.5497 67.1233 22.363 66.3143 21.9897C65.5209 21.6163 64.852 21.1185 64.3075 20.4962C63.7786 19.8739 63.3819 19.1739 63.1174 18.396C62.8529 17.6182 62.7207 16.8248 62.7207 16.0158V15.5725C62.7207 14.7168 62.8529 13.9001 63.1174 13.1223C63.3974 12.3289 63.8097 11.6288 64.3542 11.0221C64.8986 10.3998 65.5676 9.90977 66.361 9.55196C67.1699 9.17859 68.1034 8.99191 69.1612 8.99191C70.2658 8.99191 71.2536 9.20971 72.1248 9.6453C72.996 10.0653 73.6883 10.6565 74.2016 11.4188C74.7306 12.1811 75.0262 13.0678 75.0884 14.079H71.9381C71.8603 13.4256 71.5803 12.8811 71.0981 12.4455C70.6313 12.0099 69.9857 11.7921 69.1612 11.7921C68.4456 11.7921 67.8467 11.9633 67.3644 12.3055C66.8977 12.6478 66.5477 13.1223 66.3143 13.729C66.081 14.3201 65.9643 15.0046 65.9643 15.7825C65.9643 16.5292 66.0732 17.2059 66.291 17.8126C66.5243 18.4194 66.8744 18.8939 67.3411 19.2361C67.8233 19.5784 68.4378 19.7495 69.1846 19.7495C69.7446 19.7495 70.2269 19.6484 70.6313 19.4461C71.0358 19.2439 71.3547 18.9639 71.5881 18.606C71.837 18.2482 71.9926 17.8438 72.0548 17.3926H75.2051C75.1428 18.4194 74.8395 19.3217 74.295 20.0995C73.7661 20.8618 73.0582 21.4607 72.1715 21.8963C71.3003 22.3319 70.3047 22.5497 69.1846 22.5497Z" fill="#110B08"/>
<path d="M79.2503 21.8263C80.0126 22.1219 80.9771 22.2697 82.1438 22.2697H83.964V19.4928H81.9805C81.3582 19.4928 80.876 19.3294 80.5337 19.0027C80.207 18.6605 80.0437 18.1782 80.0437 17.556L80.0551 11.8155H83.964V9.43528H80.0599L80.067 5.86498H77.0334L77.0262 9.43528H75.0033V11.8155H77.0213L77.0101 17.3459C77.0101 18.5749 77.1968 19.555 77.5701 20.2862C77.9435 21.0018 78.5035 21.5152 79.2503 21.8263Z" fill="#110B08"/>
<path d="M89.8367 22.503C88.3743 22.503 87.2387 22.0208 86.4297 21.0563C85.6363 20.0917 85.2396 18.6605 85.2396 16.7626V9.41195H88.4832V17.0426C88.4832 17.8204 88.701 18.4427 89.1366 18.9094C89.5722 19.3606 90.1633 19.5861 90.9101 19.5861C91.6568 19.5861 92.2635 19.345 92.7302 18.8627C93.2125 18.3805 93.4536 17.7271 93.4536 16.9026V9.41195H96.6972V22.1063H94.1303V19.1556C94.065 19.4241 93.9872 19.6765 93.897 19.9128C93.5703 20.7685 93.0803 21.4141 92.4269 21.8497C91.7735 22.2852 90.9567 22.503 89.9767 22.503H89.8367Z" fill="#110B08"/>
<path d="M99.7465 21.4063C100.742 22.1375 102.111 22.503 103.853 22.503C104.974 22.503 105.946 22.3319 106.77 21.9897C107.595 21.6474 108.233 21.1729 108.684 20.5662C109.151 19.9439 109.384 19.2128 109.384 18.3727C109.384 17.237 108.956 16.3347 108.101 15.6658C107.26 14.9969 106.094 14.5846 104.6 14.429L103.48 14.3124C102.796 14.2346 102.298 14.0868 101.987 13.869C101.691 13.6512 101.543 13.3401 101.543 12.9356C101.543 12.5155 101.73 12.1733 102.103 11.9088C102.477 11.6444 103.006 11.5121 103.69 11.5121C104.452 11.5121 105.036 11.6677 105.44 11.9788C105.845 12.29 106.063 12.6633 106.094 13.0989H109.011C108.964 11.7766 108.458 10.7732 107.494 10.0887C106.529 9.40417 105.269 9.06192 103.713 9.06192C102.718 9.06192 101.831 9.21749 101.053 9.52862C100.291 9.8242 99.692 10.2676 99.2564 10.8587C98.8209 11.4499 98.6031 12.1811 98.6031 13.0523C98.6031 14.1412 98.9842 15.0124 99.7465 15.6658C100.509 16.3192 101.598 16.7237 103.013 16.8792L104.134 16.9959C104.974 17.0737 105.565 17.237 105.907 17.486C106.265 17.7349 106.444 18.0693 106.444 18.4894C106.444 18.9716 106.21 19.3528 105.744 19.6328C105.293 19.9128 104.678 20.0528 103.9 20.0528C102.967 20.0528 102.282 19.8739 101.847 19.5161C101.411 19.1583 101.17 18.7616 101.123 18.326H98.2064C98.253 19.6328 98.7664 20.6596 99.7465 21.4063Z" fill="#110B08"/>
<path fill-rule="evenodd" clip-rule="evenodd" d="M14.3965 0C6.6645 0 0.396484 6.26801 0.396484 14C0.396484 21.732 6.6645 28 14.3965 28C22.1285 28 28.3965 21.732 28.3965 14C28.3965 6.26801 22.1285 0 14.3965 0ZM3.53575 14C3.53575 8.00178 8.39827 3.13927 14.3965 3.13927C20.3947 3.13927 25.2572 8.00178 25.2572 14C25.2572 19.4741 21.2073 24.0023 15.9403 24.7518V22.3562L18.7279 21.3271C20.339 20.7324 21.4089 19.1969 21.4089 17.4796V12.7626C21.4089 11.8957 20.7061 11.193 19.8392 11.193C18.9724 11.193 18.2696 11.8957 18.2696 12.7626V17.4796C18.2696 17.8824 18.0186 18.2426 17.6407 18.3821L15.9403 19.0098V6.58543C15.9403 5.71854 15.2376 5.01579 14.3707 5.01579C13.5038 5.01579 12.8011 5.71854 12.8011 6.58543V13.3202L11.1514 12.7113C10.7735 12.5717 10.5226 12.2116 10.5226 11.8088V9.77533C10.5226 8.90844 9.81981 8.20569 8.95292 8.20569C8.08604 8.20569 7.38329 8.90844 7.38329 9.77533V11.8088C7.38329 13.5261 8.45321 15.0615 10.0642 15.6563L12.8011 16.6666V24.7444C7.55921 23.9727 3.53575 19.4562 3.53575 14Z" fill="#110B08"/>
</svg>
