<svg width="138" height="28" viewBox="0 0 138 28" fill="none" xmlns="http://www.w3.org/2000/svg">
<path d="M60.6917 26.1773C58.608 26.1773 56.819 25.809 55.3246 25.0723C53.8302 24.3357 52.6095 23.378 51.6624 22.1994C50.7363 21.0207 50.0522 19.7368 49.6103 18.3477C49.1683 16.9586 48.9473 15.6221 48.9473 14.3382V13.6436C48.9473 12.2124 49.1683 10.8022 49.6103 9.41313C50.0733 8.02401 50.7784 6.76117 51.7255 5.62462C52.6726 4.48806 53.8723 3.58303 55.3246 2.90952C56.7979 2.21496 58.5343 1.86768 60.5338 1.86768C62.6175 1.86768 64.4275 2.24653 65.964 3.00423C67.5215 3.74089 68.7633 4.79325 69.6894 6.16132C70.6154 7.50835 71.1732 9.0869 71.3626 10.897H66.848C66.6796 9.8446 66.3008 8.96061 65.7114 8.245C65.1432 7.50835 64.417 6.96112 63.533 6.60332C62.649 6.22446 61.6493 6.03504 60.5338 6.03504C59.3972 6.03504 58.387 6.23499 57.503 6.63489C56.619 7.01374 55.8823 7.56097 55.293 8.27657C54.7037 8.99218 54.2512 9.83407 53.9355 10.8022C53.6408 11.7704 53.4935 12.8438 53.4935 14.0225C53.4935 15.159 53.6408 16.2114 53.9355 17.1796C54.2512 18.1478 54.7142 19.0002 55.3246 19.7368C55.935 20.4524 56.6821 21.0102 57.5661 21.4101C58.4712 21.81 59.513 22.0099 60.6917 22.0099C62.4175 22.0099 63.8698 21.589 65.0484 20.7471C66.2481 19.8842 66.9743 18.6845 67.2268 17.148H71.7415C71.531 18.7897 70.9733 20.2946 70.0682 21.6626C69.1632 23.0307 67.9214 24.1252 66.3429 24.946C64.7643 25.7669 62.8806 26.1773 60.6917 26.1773Z" fill="#110B08"/>
<path d="M73.8197 25.5774V2.53067H78.2081V25.5774H73.8197ZM71.6729 5.81404V2.53067H78.2081V5.81404H71.6729Z" fill="#110B08"/>
<path d="M89.8795 26.1773C88.3641 26.1773 87.0276 25.9352 85.87 25.4512C84.7124 24.9671 83.7337 24.3146 82.9339 23.4938C82.1341 22.6519 81.5237 21.7047 81.1028 20.6524C80.7029 19.6 80.5029 18.5056 80.5029 17.369V16.706C80.5029 15.5274 80.7134 14.4119 81.1343 13.3595C81.5763 12.2861 82.1972 11.339 82.997 10.5181C83.8179 9.67622 84.8071 9.02375 85.9647 8.56071C87.1223 8.07663 88.4272 7.83458 89.8795 7.83458C91.3317 7.83458 92.6367 8.07663 93.7943 8.56071C94.9519 9.02375 95.9306 9.67622 96.7304 10.5181C97.5512 11.339 98.1721 12.2861 98.5931 13.3595C99.014 14.4119 99.2245 15.5274 99.2245 16.706V17.369C99.2245 18.5056 99.014 19.6 98.5931 20.6524C98.1932 21.7047 97.5933 22.6519 96.7935 23.4938C95.9937 24.3146 95.015 24.9671 93.8574 25.4512C92.6998 25.9352 91.3738 26.1773 89.8795 26.1773ZM89.8795 22.4204C90.9529 22.4204 91.8579 22.1888 92.5946 21.7258C93.3312 21.2417 93.889 20.5998 94.2678 19.8C94.6467 18.9791 94.8361 18.053 94.8361 17.0217C94.8361 15.9694 94.6362 15.0433 94.2363 14.2435C93.8574 13.4226 93.2891 12.7807 92.5314 12.3177C91.7948 11.8336 90.9108 11.5915 89.8795 11.5915C88.8482 11.5915 87.9536 11.8336 87.1959 12.3177C86.4593 12.7807 85.891 13.4226 85.4911 14.2435C85.0912 15.0433 84.8913 15.9694 84.8913 17.0217C84.8913 18.053 85.0807 18.9791 85.4595 19.8C85.8594 20.5998 86.4277 21.2417 87.1644 21.7258C87.901 22.1888 88.8061 22.4204 89.8795 22.4204Z" fill="#110B08"/>
<path d="M107.329 26.1141C105.351 26.1141 103.814 25.4617 102.72 24.1568C101.646 22.8518 101.11 20.9155 101.11 18.3477V8.40286H105.498V18.7266C105.498 19.7789 105.793 20.6208 106.382 21.2522C106.971 21.8626 107.771 22.1678 108.781 22.1678C109.792 22.1678 110.612 21.8416 111.244 21.1891C111.896 20.5366 112.223 19.6526 112.223 18.5371V8.40286H116.611V25.5774H113.138V18.2846H113.485C113.485 20.0104 113.264 21.4522 112.822 22.6098C112.38 23.7674 111.717 24.6408 110.833 25.2302C109.949 25.8195 108.844 26.1141 107.518 26.1141H107.329Z" fill="#110B08"/>
<path d="M127.177 26.1457C125.977 26.1457 124.872 25.9247 123.862 25.4827C122.852 25.0407 121.978 24.4198 121.241 23.62C120.505 22.8202 119.937 21.8942 119.537 20.8418C119.137 19.7684 118.937 18.6108 118.937 17.369V16.706C118.937 15.4853 119.126 14.3382 119.505 13.2648C119.905 12.1914 120.452 11.2548 121.147 10.455C121.862 9.65517 122.715 9.03428 123.704 8.59228C124.714 8.12924 125.83 7.89772 127.051 7.89772C128.398 7.89772 129.576 8.19239 130.586 8.78171C131.618 9.34999 132.439 10.2129 133.049 11.3705C133.659 12.5281 133.996 13.9804 134.059 15.7273L132.765 14.2119V2.53067L137.153 2.53067V25.5774H133.68V18.2846H134.438C134.375 20.0315 134.017 21.4943 133.365 22.6729C132.712 23.8305 131.849 24.704 130.776 25.2933C129.724 25.8616 128.524 26.1457 127.177 26.1457ZM128.156 22.4519C129.018 22.4519 129.808 22.2625 130.523 21.8836C131.239 21.4837 131.807 20.9155 132.228 20.1788C132.67 19.4211 132.891 18.5371 132.891 17.5269V16.264C132.891 15.2537 132.67 14.4119 132.228 13.7383C131.786 13.0438 131.207 12.5176 130.492 12.1598C129.776 11.7809 128.997 11.5915 128.156 11.5915C127.208 11.5915 126.367 11.823 125.63 12.2861C124.914 12.7281 124.346 13.3595 123.925 14.1803C123.525 15.0012 123.325 15.9588 123.325 17.0533C123.325 18.1478 123.536 19.1054 123.957 19.9262C124.378 20.726 124.946 21.3469 125.661 21.7889C126.398 22.2309 127.229 22.4519 128.156 22.4519Z" fill="#110B08"/>
<path d="M32.4139 28.0002C30.8977 28.0002 29.9634 27.3002 28.4372 26.4758C26.9109 25.6514 22.4967 22.3321 22.4967 18.2002C22.4967 15.3973 21.7742 13.1303 20.5437 11.3235C19.3224 9.53068 17.6678 8.28859 15.9465 7.41177C15.1171 6.98931 14.254 6.64386 13.3945 6.35835C12.8934 6.19201 12.6026 5.65402 12.82 5.173C14.1979 2.12257 17.2666 0.000244141 20.8313 0.000244141C25.6837 0.000244141 29.6175 3.93387 29.6175 8.78647C29.6175 9.82463 29.4375 10.8208 29.1069 11.7453C30.5073 10.8015 32.1947 10.2507 34.0105 10.2507C38.8629 10.2507 42.7967 14.1844 42.7967 19.037C42.7967 24.8787 37.6634 28.0002 32.4139 28.0002Z" fill="#110B08"/>
<path d="M0.330078 18.3048C0.330078 22.9362 3.38346 26.7951 7.42852 27.6477C8.05286 27.8758 8.72689 28.0002 9.43008 28.0002H23.0812C23.539 28.0002 23.7384 27.388 23.3888 27.0922C21.0031 25.0736 19.2301 22.2287 19.2301 18.2002C19.2301 15.9868 18.6695 14.3746 17.8437 13.1626C17.0086 11.9367 15.834 11.0205 14.4638 10.3223C13.0809 9.61795 11.5795 9.16929 10.1458 8.85119C9.8081 8.80858 9.46449 8.78647 9.11631 8.78647C4.2637 8.78647 0.330078 13.048 0.330078 18.3048Z" fill="#110B08"/>
</svg>
