<svg width="1337" height="28" viewBox="0 0 1337 28" fill="none" xmlns="http://www.w3.org/2000/svg">
<path d="M44.7265 6.42146L44.416 6.30204C42.8332 5.69324 41.3492 5.39346 39.9616 5.39346C38.5864 5.39346 37.5591 5.68614 36.8396 6.22976C36.132 6.76442 35.7765 7.4951 35.7765 8.46131C35.7765 9.60517 36.3565 10.5039 37.615 11.1673C38.2041 11.4617 38.8467 11.7397 39.5433 12.0011C40.2781 12.2522 41.0125 12.5389 41.7464 12.8611C42.4905 13.1877 43.1736 13.5609 43.7949 13.9812C44.45 14.4243 44.9734 15.0371 45.3684 15.8077C45.7009 16.4418 45.8893 17.2097 45.9463 18.1007V10.1904V9.85326H46.2834H48.1455H48.4827V10.1904V11.9658C48.7875 11.5684 49.164 11.1912 49.6084 10.8335C50.4787 10.1152 51.4483 9.74685 52.5082 9.74685C53.4991 9.74685 54.3253 9.84516 54.9739 10.054C55.6281 10.2417 56.1485 10.525 56.4903 10.9309L56.4949 10.9364L56.4948 10.9364C56.9969 11.5589 57.2346 12.3485 57.2346 13.2762V21.6025C57.2346 22.0729 57.3233 22.3924 57.4613 22.5988C57.6456 22.8261 57.7795 22.8828 57.8565 22.8892L57.8727 22.8905L57.8888 22.8934L58.1515 22.9412H58.9457H59.2829V23.2784V23.4912V23.8283H58.9457H57.3231C56.5517 23.8283 55.9057 23.6595 55.4337 23.2733L55.4277 23.2684L55.4277 23.2683C55.0224 22.9209 54.7505 22.5238 54.7253 22.0738L54.7254 22.0745L55.0619 22.0547L54.7253 22.0734L44.7265 6.42146ZM44.7265 6.42146L44.8501 6.11258L44.9565 5.84656L45.0893 5.51457L44.7501 5.4015C42.9098 4.78806 41.0915 4.47975 39.2966 4.47975C37.5126 4.47975 36.1117 4.89782 35.1567 5.79349C34.2119 6.66184 33.7455 7.80144 33.7455 9.17955C33.7455 10.9223 34.4746 12.2876 35.9172 13.2374C36.5361 13.6559 37.2165 14.0367 37.9577 14.3801L37.9577 14.3802L37.964 14.3829C38.6922 14.7027 39.4117 15.0136 40.1223 15.3156L40.1251 15.3167C40.8393 15.6129 41.4899 15.934 42.0778 16.2798C43.3358 17.0247 43.9339 18.0294 43.9339 19.3147C43.9339 20.5027 43.4711 21.3775 42.5437 21.9853C41.5974 22.5993 40.4407 22.9146 39.0571 22.9146C38.1163 22.9146 37.1927 22.778 36.2854 22.5045C35.3917 22.212 34.6773 21.8473 34.1317 21.4174L33.8364 21.1848L33.6371 21.5036L33.5041 21.7164L33.3347 21.9876L33.5965 22.1711C35.2047 23.2987 37.137 23.8549 39.3764 23.8549C40.5712 23.8549 41.6256 23.7193 42.5342 23.4411L42.5342 23.4412L42.5383 23.4399C43.4931 23.1343 44.3014 22.5612 44.9605 21.7325C45.5416 21.0021 45.8679 20.1451 45.9463 19.1733L44.7265 6.42146ZM57.7824 23.5595L57.7682 23.5569L57.7801 23.4912H57.5169C57.6013 23.5263 57.6897 23.5499 57.7824 23.5595ZM57.7824 23.5595C57.7884 23.5601 57.7944 23.5606 57.8005 23.5611L57.8063 23.4912H58.0824H58.1211H58.6086H58.9457V23.6155H58.1211H58.0907L58.0608 23.6101L57.7824 23.5595ZM57.8285 23.2252L58.1211 23.2784M57.8285 23.2252L58.1211 23.154V23.2784M57.8285 23.2252C57.7494 23.2186 57.6704 23.1949 57.5914 23.154L57.8285 23.2252ZM58.1211 23.2784H58.6086H58.9457V23.154H58.1437L58.1211 23.2784ZM49.8214 11.0949C50.6372 10.421 51.5328 10.084 52.5082 10.084C52.526 10.084 52.5437 10.084 52.5614 10.0841C53.0367 10.0858 53.4672 10.1111 53.8529 10.1598C53.4749 10.0232 53.0418 9.95966 52.5614 9.95966C52.5436 9.95966 52.5259 9.95976 52.5082 9.95997C51.4914 9.97174 50.5656 10.3212 49.7365 10.9893L49.8214 11.0949ZM49.8214 11.0949L49.7351 10.9904C49.5748 11.1197 49.4181 11.2609 49.265 11.4139M49.8214 11.0949C49.6551 11.2286 49.4995 11.3646 49.3545 11.5028L49.2662 11.4127C49.2658 11.4131 49.2654 11.4135 49.265 11.4139M49.265 11.4139C49.2646 11.4143 49.2642 11.4147 49.2638 11.4151L49.353 11.5043L48.4827 12.303C48.6975 12.0094 48.9601 11.7129 49.265 11.4139ZM53.7922 10.8637C53.7947 10.8649 53.7972 10.866 53.7997 10.8672L53.9447 10.5628L53.7852 10.8599C53.7876 10.8612 53.7899 10.8624 53.7922 10.8637ZM48.2936 13.3154L48.4591 13.3469C48.6783 12.7923 49.0513 12.257 49.5906 11.7436C49.5909 11.7433 49.5912 11.743 49.5915 11.7427C49.7278 11.6129 49.8749 11.4845 50.0327 11.3576L50.0327 11.3576L50.0361 11.3548C50.797 10.7263 51.618 10.4211 52.5082 10.4211C52.526 10.4211 52.5437 10.4212 52.5614 10.4212C53.011 10.4229 53.4143 10.4462 53.7727 10.4896C53.4332 10.3611 53.0294 10.2968 52.5614 10.2968C52.5436 10.2968 52.5259 10.2969 52.5082 10.2971C51.5774 10.3088 50.7246 10.6265 49.9499 11.2503C49.9492 11.2509 49.9485 11.2514 49.9478 11.252C49.7963 11.3741 49.6477 11.5079 49.5022 11.6535C49.0486 12.0982 48.7088 12.5206 48.4827 12.9206L48.2936 13.3154ZM59.4609 11.6811L59.4592 11.6829C58.1745 12.9864 57.5533 14.8017 57.5533 17.0802C57.5533 19.3527 58.154 21.1007 59.4193 22.251C60.6626 23.3812 62.2648 23.9347 64.195 23.9347C66.1554 23.9347 67.7877 23.2933 69.0632 21.9994C70.3658 20.6961 70.9963 18.8806 70.9963 16.6014C70.9963 14.3289 70.3956 12.5809 69.1302 11.4306C67.8864 10.2998 66.275 9.74685 64.328 9.74685C62.384 9.74685 60.7529 10.3891 59.4609 11.6811ZM61.2996 12.3074L61.301 12.3054C62.1323 11.1749 63.1536 10.634 64.3812 10.634C65.6293 10.634 66.6126 11.1037 67.3624 12.0492C68.1092 12.9908 68.5131 14.487 68.5131 16.6014C68.5131 18.6865 68.0783 20.2738 67.2492 21.4019C66.4189 22.5139 65.3977 23.0476 64.1684 23.0476C62.9203 23.0476 61.937 22.5779 61.1871 21.6324C60.4401 20.6904 60.0365 19.2027 60.0365 17.1068C60.0365 15.0023 60.4719 13.4164 61.2996 12.3074ZM88.7305 10.1116L88.4843 10.3578L88.7383 10.596C88.9341 10.7795 89.0574 11.0679 89.0574 11.5205C89.0574 11.9878 88.961 12.3711 88.7826 12.6833L88.7754 12.696L88.7692 12.7092L85.2527 20.3244L81.4643 10.0735L81.3829 9.85326H81.1481H79.286H78.8034L78.9694 10.3064L79.9058 12.8626L76.4736 20.3229L72.6858 10.0735L72.6044 9.85326H72.3696H70.5074H70.0223L70.1915 10.308L75.1393 23.6087L75.221 23.8283H75.4553H75.7213H75.9384L76.0283 23.6307L80.372 14.0794L83.9179 23.6088L83.9996 23.8283H84.2338H84.4999H84.7169L84.8067 23.6308L89.6482 12.9902L89.6483 12.9902L89.6512 12.9834C89.8797 12.4502 89.9977 11.9175 89.9977 11.3875C89.9977 11.2372 89.9771 11.0827 89.9389 10.925C89.9084 10.7188 89.8102 10.5176 89.6776 10.3261C89.6213 10.2331 89.5646 10.1498 89.5072 10.081C89.4521 10.0148 89.3765 9.93746 89.2793 9.88885L89.062 9.78018L88.8901 9.952L88.7305 10.1116Z" fill="#110B08" stroke="#110B08" stroke-width="0.674298"/>
<path d="M94.0813 5.18766C94.5093 4.53129 95.1759 4.01704 96.0906 3.90154L95.859 21.7847H95.859V21.7891C95.859 21.9998 95.9242 22.212 96.0276 22.4187C96.5255 23.4144 97.6891 23.8287 99.2819 23.8287H100.107H100.444V23.4916V23.2787V22.9416H100.107H99.3123L99.0496 22.8938L99.0335 22.8909L99.0173 22.8896C98.9403 22.8832 98.8064 22.8265 98.6221 22.5992C98.4842 22.3928 98.3954 22.0732 98.3954 21.6029V3.56701V3.23533L98.0637 3.2299L96.4379 3.2033L96.0997 3.19777L96.0995 3.21076C94.3604 3.27388 93.0216 3.70877 92.1519 4.5776C91.2228 5.48786 90.8016 6.9744 90.8016 8.94052V9.85364H90.5801H90.2429V10.1908V10.6206V10.9577H90.5801H90.8016V23.4916V23.8287H91.1387H93.0008H93.338V23.4916V10.9577H95.1023H95.4395V10.6206V10.1908V9.85364H95.1023H93.338V8.94052C93.338 7.1295 93.6049 5.90219 94.0794 5.19051L94.0794 5.19052L94.0813 5.18766ZM107.826 12.7807V16.7439C107.525 16.7258 107.203 16.7168 106.86 16.7168C106.37 16.7168 105.838 16.7439 105.264 16.7976C104.11 16.8694 103.146 17.0044 102.378 17.2068C101.614 17.408 101.013 17.6839 100.616 18.0595C100.261 18.3955 100.005 18.7405 99.9103 19.0952C99.8332 19.3843 99.7925 19.6621 99.7925 19.927C99.7925 20.1576 99.8116 20.388 99.8498 20.6179C100.01 21.6889 100.434 22.5325 101.15 23.1035C101.863 23.6717 102.822 23.9351 103.987 23.9351C104.991 23.9351 105.878 23.7279 106.634 23.2994C107.123 23.0221 107.549 22.6566 107.914 22.2069C108.032 22.4922 108.258 22.771 108.537 23.0389C109.082 23.6009 110.028 23.8287 111.249 23.8287H112.074H112.136H112.411H112.473H114.335H114.673V23.4916V17.2068L115.021 16.8071L119.696 23.6812L119.797 23.8287H119.975H121.837H122.474L122.116 23.3019L116.544 15.1127L120.706 10.4144L121.203 9.85364H120.454H120.188H120.036L119.936 9.96705L114.673 15.8999V3.54041V3.20326H114.335H112.473H112.136V3.54041V22.9416H112.074H111.279L111.017 22.8938L111.001 22.8909L110.984 22.8896C110.907 22.8832 110.774 22.8265 110.589 22.5992C110.451 22.3927 110.363 22.0732 110.363 21.6029V12.6913C110.363 12.0238 110.089 11.4059 109.585 10.8439C109.234 10.4508 108.719 10.1794 108.079 10.0051C107.437 9.83053 106.647 9.74724 105.716 9.74724C104.033 9.74724 102.38 10.1227 100.76 10.8688L100.426 11.0228L100.608 11.3423L100.715 11.5285L100.881 11.8199L101.173 11.6548C101.543 11.4459 102.148 11.2241 103.009 10.9955L103.009 10.9955L103.014 10.9943C103.882 10.7512 104.621 10.6343 105.237 10.6343C105.867 10.6343 106.348 10.7201 106.699 10.8724L106.699 10.8726L106.71 10.8772C107.088 11.025 107.302 11.1879 107.407 11.3404C107.551 11.5482 107.661 11.7613 107.739 11.9801L107.744 11.9943L107.751 12.008C107.841 12.2029 107.847 12.3174 107.835 12.3758C107.816 12.4537 107.8 12.5387 107.8 12.6182C107.8 12.6584 107.803 12.7176 107.826 12.7807ZM107.826 20.523C107.779 20.9927 107.45 21.5433 106.72 22.1715C106.034 22.7601 105.268 23.048 104.412 23.048C103.785 23.048 103.335 22.8447 103.015 22.4634C102.683 22.0683 102.458 21.4423 102.381 20.5369L102.381 20.5369L102.38 20.5318C102.364 20.363 102.355 20.2148 102.355 20.0866C102.355 19.3651 102.543 18.8438 102.878 18.4793C103.029 18.3153 103.292 18.1528 103.704 18.0113C104.112 17.8711 104.643 17.7597 105.302 17.6816C105.768 17.6298 106.234 17.604 106.7 17.604C107.081 17.604 107.456 17.6146 107.826 17.6357V20.523ZM123.619 15.8482H132.81H133.147V15.5111V15.5106V15.5101V15.5095V15.509V15.5085V15.508V15.5075V15.5069V15.5064V15.5059V15.5054V15.5049V15.5043V15.5038V15.5033V15.5028V15.5023V15.5017V15.5012V15.5007V15.5002V15.4997V15.4992V15.4986V15.4981V15.4976V15.4971V15.4966V15.496V15.4955V15.495V15.4945V15.494V15.4934V15.4929V15.4924V15.4919V15.4914V15.4908V15.4903V15.4898V15.4893V15.4888V15.4882V15.4877V15.4872V15.4867V15.4862V15.4856V15.4851V15.4846V15.4841V15.4836V15.483V15.4825V15.482V15.4815V15.481V15.4804V15.4799V15.4794V15.4789V15.4784V15.4778V15.4773V15.4768V15.4763V15.4758V15.4753V15.4747V15.4742V15.4737V15.4732V15.4727V15.4721V15.4716V15.4711V15.4706V15.4701V15.4695V15.469V15.4685V15.468V15.4675V15.4669V15.4664V15.4659V15.4654V15.4649V15.4643V15.4638V15.4633V15.4628V15.4623V15.4617V15.4612V15.4607V15.4602V15.4597V15.4591V15.4586V15.4581V15.4576V15.4571V15.4565V15.456V15.4555V15.455V15.4545V15.4539V15.4534V15.4529V15.4524V15.4519V15.4514V15.4508V15.4503V15.4498V15.4493V15.4488V15.4482V15.4477V15.4472V15.4467V15.4462V15.4456V15.4451V15.4446V15.4441V15.4436V15.443V15.4425V15.442V15.4415V15.441V15.4404V15.4399V15.4394V15.4389V15.4384V15.4378V15.4373V15.4368V15.4363V15.4358V15.4352V15.4347V15.4342V15.4337V15.4332V15.4326V15.4321V15.4316V15.4311V15.4306V15.43V15.4295V15.429V15.4285V15.428V15.4275V15.4269V15.4264V15.4259V15.4254V15.4249V15.4243V15.4238V15.4233V15.4228V15.4223V15.4217V15.4212V15.4207V15.4202V15.4197V15.4191V15.4186V15.4181V15.4176V15.4171V15.4165V15.416V15.4155V15.415V15.4145V15.4139V15.4134V15.4129V15.4124V15.4119V15.4113V15.4108V15.4103V15.4098V15.4093V15.4087V15.4082V15.4077V15.4072V15.4067V15.4061V15.4056V15.4051V15.4046V15.4041V15.4036V15.403V15.4025V15.402V15.4015V15.401V15.4004V15.3999V15.3994V15.3989V15.3984V15.3978V15.3973V15.3968V15.3963V15.3958V15.3952V15.3947V15.3942V15.3937V15.3932V15.3926V15.3921V15.3916V15.3911V15.3906V15.39V15.3895V15.389V15.3885V15.388V15.3874V15.3869V15.3864V15.3859V15.3854V15.3848V15.3843V15.3838V15.3833V15.3828V15.3822V15.3817V15.3812V15.3807V15.3802V15.3797V15.3791V15.3786V15.3781V15.3776V15.3771V15.3765V15.376V15.3755V15.375V15.3745V15.3739V15.3734V15.3729V15.3724V15.3719V15.3713V15.3708V15.3703V15.3698V15.3693V15.3687V15.3682V15.3677V15.3672V15.3667V15.3661V15.3656V15.3651V15.3646V15.3641V15.3635V15.363V15.3625V15.362V15.3615V15.3609V15.3604V15.3599V15.3594V15.3589V15.3583V15.3578V15.3573V15.3568V15.3563V15.3558V15.3552V15.3547V15.3542V15.3537V15.3532V15.3526V15.3521V15.3516V15.3511V15.3506V15.35V15.3495V15.349V15.3485V15.348V15.3474V15.3469V15.3464V15.3459V15.3454V15.3448V15.3443V15.3438V15.3433V15.3428V15.3422V15.3417V15.3412V15.3407V15.3402V15.3396V15.3391V15.3386V15.3381V15.3376V15.337V15.3365V15.336V15.3355V15.335V15.3344V15.3339V15.3334V15.3329V15.3324V15.3319V15.3313V15.3308V15.3303V15.3298V15.3293V15.3287V15.3282V15.3277V15.3272V15.3267V15.3261V15.3256V15.3251V15.3246V15.3241V15.3235V15.323V15.3225V15.322V15.3215V15.3209V15.3204V15.3199V15.3194V15.3189V15.3183V15.3178V15.3173V15.3168V15.3163V15.3157V15.3152V15.3147V15.3142V15.3137V15.3131V15.3126V15.3121V15.3116V15.3111V15.3106V15.31V15.3095V15.309V15.3085V15.308V15.3074V15.3069V15.3064V15.3059V15.3054V15.3048V15.3043V15.3038V15.3033V15.3028V15.3022V15.3017V15.3012V15.3007V15.3002V15.2996V15.2991V15.2986V15.2981V15.2976V15.297V15.2965V15.296V15.2955V15.295V15.2944V15.2939V15.2934V15.2929V15.2924V15.2918V15.2913V15.2908V15.2903V15.2898V15.2892V15.2887V15.2882V15.2877V15.2872V15.2867V15.2861V15.2856V15.2851V15.2846V15.2841V15.2835V15.283V15.2825V15.282V15.2815V15.2809V15.2804V15.2799V15.2794V15.2789V15.2783V15.2778V15.2773V15.2768V15.2763V15.2757V15.2752V15.2747V15.2742V15.2737V15.2731V15.2726V15.2721V15.2716V15.2711V15.2705V15.27V15.2695V15.269V15.2685V15.2679V15.2674V15.2669V15.2664V15.2659V15.2653V15.2648V15.2643V15.2638V15.2633V15.2628V15.2622V15.2617V15.2612V15.2607V15.2602V15.2596V15.2591V15.2586V15.2581V15.2576V15.257V15.2565V15.256V15.2555V15.255V15.2544V15.2539V15.2534V15.2529V15.2524V15.2518V15.2513V15.2508V15.2503V15.2498V15.2492V15.2487V15.2482V15.2477V15.2472V15.2466V15.2461V15.2456V15.2451C133.147 13.4755 132.628 12.0846 131.542 11.1341C130.481 10.2057 129.176 9.74724 127.649 9.74724C125.755 9.74724 124.175 10.3918 122.936 11.6868C121.689 12.9908 121.087 14.8047 121.087 17.0806C121.087 19.3488 121.659 21.0948 122.868 22.246C124.057 23.3787 125.59 23.9351 127.436 23.9351C129.262 23.9351 130.909 23.6549 132.373 23.0877L132.699 22.9615L132.561 22.6405L132.481 22.4543L132.353 22.1559L132.05 22.2724C130.712 22.787 129.176 23.048 127.436 23.048C126.286 23.048 125.365 22.5861 124.647 21.64C123.949 20.6981 123.57 19.1729 123.57 17.0008C123.57 16.6051 123.587 16.221 123.619 15.8482ZM129.751 11.7287C130.283 12.4084 130.6 13.4694 130.656 14.9611H123.733C123.964 13.6325 124.42 12.6036 125.081 11.8516C125.827 11.0227 126.645 10.6343 127.543 10.6343C128.447 10.6343 129.175 10.9922 129.751 11.7287Z" fill="#110B08" stroke="#110B08" stroke-width="0.674298"/>
<path d="M135.265 3.26085V3.96363H134.466V6.10178H133.707V3.96363H132.908V3.26085H135.265Z" fill="#110B08"/>
<path d="M138.379 3.21826V6.11456H137.621V4.709L137.065 5.36919H136.838L136.282 4.709V6.11456H135.524V3.21826H135.791L136.951 4.45345L138.111 3.21826H138.379Z" fill="#110B08"/>
<path fill-rule="evenodd" clip-rule="evenodd" d="M13.0276 18.8629L13.016 27.9977L14.9469 28.0001L14.9585 18.8249L18.4802 27.297L20.2631 26.5559L16.7647 18.1396L23.202 24.5932L24.569 23.2297L18.1052 16.7494L26.5585 20.2576L27.2987 18.4743L18.8435 14.9653H27.9976V13.0344H18.8655L27.3058 9.54858L26.5687 7.76392L18.1677 11.2335L24.6279 4.83939L23.2696 3.46706L16.7252 9.94452L20.252 1.43851L18.4683 0.698994L14.9708 9.13466L14.9823 0.00256913L13.0515 0.00012207L13.0399 9.17881L9.5166 0.702918L7.73364 1.44406L11.231 9.85779L4.79688 3.40726L3.42981 4.77086L9.89332 11.2508L1.4396 7.74237L0.699467 9.52575L9.15373 13.0344H0L0 14.9653H9.13209L0.69124 18.4513L1.4283 20.236L9.83548 16.7638L3.37087 23.1623L4.72916 24.5347L11.2699 18.0609L7.74528 26.5617L9.52891 27.3012L13.0276 18.8629Z" fill="#110B08"/>
<path d="M239.757 16.8962V26.8322H242.986V16.2505C242.986 14.9114 242.699 13.7277 242.125 12.6994C241.551 11.6711 240.762 10.87 239.757 10.2961C238.777 9.72217 237.641 9.43521 236.35 9.43521C235.058 9.43521 233.899 9.73413 232.87 10.332C232.096 10.7643 231.45 11.3187 230.933 11.9953V1.22095H227.705V26.8322H230.933V16.8962C230.933 16.0353 231.125 15.2701 231.507 14.6005C231.89 13.9309 232.416 13.4048 233.086 13.0222C233.755 12.6396 234.52 12.4483 235.381 12.4483C236.673 12.4483 237.725 12.8668 238.538 13.7038C239.351 14.5407 239.757 15.6049 239.757 16.8962Z" fill="#110B08"/>
<path d="M248.648 26.2583C249.772 26.88 251.039 27.1909 252.45 27.1909C253.885 27.1909 255.14 26.88 256.217 26.2583C257.317 25.6126 258.177 24.7278 258.799 23.6039C259.421 22.48 259.732 21.1767 259.732 19.6941V9.79391H256.503V19.5506C256.503 20.9615 256.145 22.0735 255.427 22.8865C254.71 23.6756 253.718 24.0702 252.45 24.0702C251.613 24.0702 250.884 23.8909 250.262 23.5322C249.64 23.1735 249.162 22.6593 248.827 21.9898C248.516 21.2963 248.361 20.4832 248.361 19.5506V9.79391H245.133V19.6941C245.133 21.1767 245.444 22.48 246.065 23.6039C246.687 24.7278 247.548 25.6126 248.648 26.2583Z" fill="#110B08"/>
<path fill-rule="evenodd" clip-rule="evenodd" d="M270.157 27.1909C268.459 27.1909 266.928 26.8083 265.565 26.0431C264.202 25.2539 263.126 24.1898 262.337 22.8506C261.548 21.5115 261.153 19.993 261.153 18.2951C261.153 16.6212 261.536 15.1146 262.301 13.7755C263.09 12.4363 264.142 11.3842 265.458 10.6189C266.797 9.82978 268.291 9.43521 269.941 9.43521C271.52 9.43521 272.907 9.79391 274.102 10.5113C275.322 11.2287 276.266 12.2211 276.936 13.4885C277.629 14.7559 277.976 16.1908 277.976 17.7929C277.976 18.0321 277.964 18.2951 277.94 18.5821C277.916 18.8451 277.869 19.156 277.797 19.5147H264.454C264.567 20.1782 264.77 20.788 265.063 21.3441C265.541 22.2289 266.223 22.9224 267.108 23.4246C267.992 23.9028 269.009 24.142 270.157 24.142C271.113 24.142 271.986 23.9746 272.775 23.6398C273.588 23.305 274.282 22.8028 274.856 22.1332L276.936 24.2496C276.123 25.2061 275.119 25.9355 273.923 26.4377C272.751 26.9398 271.496 27.1909 270.157 27.1909ZM265.027 15.1386C264.759 15.6464 264.57 16.2084 264.46 16.8245H274.83C274.742 16.1193 274.559 15.4975 274.282 14.9592C273.875 14.1462 273.301 13.5244 272.56 13.094C271.819 12.6396 270.922 12.4124 269.87 12.4124C268.77 12.4124 267.801 12.6516 266.964 13.1298C266.127 13.6081 265.481 14.2777 265.027 15.1386Z" fill="#110B08"/>
<path d="M280.061 25.7561C280.779 26.2105 281.556 26.5692 282.393 26.8322C283.254 27.0714 284.163 27.1909 285.119 27.1909C287.032 27.1909 288.551 26.7246 289.675 25.792C290.823 24.8594 291.396 23.592 291.396 21.9898C291.396 20.9376 291.169 20.0886 290.715 19.443C290.284 18.7973 289.722 18.2832 289.029 17.9006C288.336 17.5179 287.606 17.219 286.841 17.0038C286.076 16.7647 285.334 16.5375 284.617 16.3223C283.923 16.1071 283.362 15.844 282.931 15.5331C282.501 15.2223 282.285 14.7799 282.285 14.2059C282.285 13.632 282.525 13.1896 283.003 12.8787C283.505 12.544 284.222 12.3766 285.155 12.3766C286.04 12.3766 286.829 12.544 287.522 12.8787C288.24 13.2135 288.838 13.6918 289.316 14.3135L291.396 12.2331C290.727 11.3005 289.866 10.607 288.814 10.1526C287.785 9.67434 286.602 9.43521 285.263 9.43521C283.995 9.43521 282.907 9.63847 281.998 10.045C281.114 10.4515 280.42 11.0374 279.918 11.8026C279.416 12.544 279.165 13.4287 279.165 14.457C279.165 15.4853 279.38 16.3103 279.81 16.9321C280.265 17.5538 280.839 18.044 281.532 18.4027C282.226 18.7614 282.955 19.0604 283.72 19.2995C284.509 19.5147 285.251 19.7419 285.944 19.981C286.638 20.1962 287.2 20.4832 287.63 20.8419C288.084 21.1767 288.312 21.655 288.312 22.2767C288.312 22.8985 288.037 23.3887 287.487 23.7474C286.937 24.0822 286.159 24.2496 285.155 24.2496C284.151 24.2496 283.242 24.0702 282.429 23.7115C281.616 23.3289 280.898 22.755 280.277 21.9898L278.196 24.0702C278.722 24.7159 279.344 25.2778 280.061 25.7561Z" fill="#110B08"/>
<path d="M288.375 4.07344V4.70913H287.61V6.64317H286.883V4.70913H286.118V4.07344H288.375Z" fill="#110B08"/>
<path d="M291.358 4.03491V6.65473H290.631V5.38335L290.099 5.98051H289.882L289.349 5.38335V6.65473H288.623V4.03491H288.879L289.99 5.15219L291.101 4.03491H291.358Z" fill="#110B08"/>
<path d="M196.746 8.25476C197.751 11.4782 201.179 13.2763 204.403 12.271C207.626 11.2657 215.261 6.01731 214.255 2.79389C213.25 -0.429536 203.985 -0.407374 200.762 0.597945C197.539 1.60326 195.74 5.03133 196.746 8.25476Z" fill="#110B08"/>
<path d="M194.798 25.9308C196.69 27.8228 199.757 27.8228 201.649 25.9308C203.541 24.0388 206.966 17.5459 205.075 15.6539C203.183 13.7621 196.69 17.1877 194.798 19.0795C192.906 20.9715 192.906 24.0388 194.798 25.9308Z" fill="#110B08"/>
<path d="M212.902 27.7903C216.164 28.6642 219.516 26.7287 220.39 23.4672C221.264 20.2056 220.911 10.9479 217.649 10.0738C214.388 9.2 209.453 17.0409 208.579 20.3025C207.705 23.5639 209.64 26.9163 212.902 27.7903Z" fill="#110B08"/>
<path d="M383.502 21.733C384.606 22.2775 385.929 22.5497 387.469 22.5497C389.087 22.5497 390.479 22.2464 391.646 21.6396C392.813 21.0329 393.73 20.224 394.399 19.2128C395.068 18.2016 395.481 17.0893 395.636 15.8758H392.299C392.113 17.0115 391.576 17.8982 390.689 18.536C389.818 19.1583 388.744 19.4695 387.469 19.4695C386.598 19.4695 385.828 19.3217 385.159 19.0261C384.505 18.7305 383.953 18.3182 383.502 17.7893C383.051 17.2448 382.708 16.6148 382.475 15.8992C382.257 15.1835 382.148 14.4057 382.148 13.5656C382.148 12.6944 382.257 11.901 382.475 11.1854C382.708 10.4698 383.043 9.84754 383.478 9.31861C383.914 8.78967 384.459 8.38519 385.112 8.10517C385.765 7.80959 386.512 7.6618 387.352 7.6618C388.177 7.6618 388.916 7.80181 389.569 8.08184C390.222 8.3463 390.759 8.75078 391.179 9.29527C391.615 9.8242 391.895 10.4776 392.019 11.2554H395.356C395.216 9.91755 394.804 8.75078 394.119 7.75514C393.435 6.74395 392.517 5.9661 391.366 5.42161C390.23 4.86157 388.892 4.58154 387.352 4.58154C385.874 4.58154 384.591 4.83823 383.502 5.35161C382.428 5.84943 381.542 6.51837 380.842 7.35844C380.142 8.19851 379.62 9.13192 379.278 10.1587C378.951 11.1854 378.788 12.2277 378.788 13.2856V13.799C378.788 14.7479 378.951 15.7358 379.278 16.7626C379.605 17.7893 380.11 18.7383 380.795 19.6095C381.495 20.4806 382.397 21.1885 383.502 21.733Z" fill="#110B08"/>
<path fill-rule="evenodd" clip-rule="evenodd" d="M404.29 20.5662C404.45 20.2943 404.582 19.9943 404.686 19.6661V22.1063H407.253V14.2424C407.253 13.06 407.028 12.1033 406.576 11.3721C406.141 10.6409 405.487 10.1042 404.616 9.76198C403.761 9.41973 402.679 9.2486 401.373 9.2486C400.953 9.2486 400.501 9.25638 400.019 9.27194C399.552 9.27194 399.094 9.28749 398.642 9.31861C398.191 9.34972 397.787 9.38083 397.429 9.41195V12.1655C397.865 12.1344 398.355 12.1111 398.899 12.0955C399.459 12.0644 400.011 12.0411 400.556 12.0255C401.1 12.0099 401.567 12.0022 401.956 12.0022C402.703 12.0022 403.255 12.1811 403.613 12.5389C403.971 12.8967 404.15 13.4412 404.15 14.1723V14.289H401.559C400.439 14.289 399.459 14.4368 398.619 14.7324C397.795 15.028 397.149 15.4713 396.682 16.0625C396.231 16.6537 396.006 17.4159 396.006 18.3494C396.006 19.205 396.192 19.9362 396.566 20.5429C396.954 21.1496 397.491 21.6163 398.176 21.943C398.876 22.2697 399.685 22.433 400.603 22.433C401.489 22.433 402.236 22.2775 402.843 21.9663C403.465 21.6396 403.947 21.1729 404.29 20.5662ZM403.706 19.0494C403.971 18.6449 404.118 18.1004 404.15 17.4159V16.2259H401.513C400.766 16.2259 400.19 16.4125 399.786 16.7859C399.397 17.1437 399.202 17.6104 399.202 18.186C399.202 18.7616 399.397 19.2283 399.786 19.5861C400.19 19.9439 400.766 20.1228 401.513 20.1228C401.964 20.1228 402.376 20.0451 402.749 19.8895C403.138 19.7184 403.457 19.4383 403.706 19.0494Z" fill="#110B08"/>
<path d="M415.185 22.5497C414.08 22.5497 413.123 22.363 412.314 21.9897C411.521 21.6163 410.852 21.1185 410.307 20.4962C409.779 19.8739 409.382 19.1739 409.117 18.396C408.853 17.6182 408.721 16.8248 408.721 16.0158V15.5725C408.721 14.7168 408.853 13.9001 409.117 13.1223C409.397 12.3289 409.81 11.6288 410.354 11.0221C410.899 10.3998 411.568 9.90977 412.361 9.55196C413.17 9.17859 414.103 8.99191 415.161 8.99191C416.266 8.99191 417.254 9.20971 418.125 9.6453C418.996 10.0653 419.688 10.6565 420.202 11.4188C420.731 12.1811 421.026 13.0678 421.088 14.079H417.938C417.86 13.4256 417.58 12.8811 417.098 12.4455C416.631 12.0099 415.986 11.7921 415.161 11.7921C414.446 11.7921 413.847 11.9633 413.364 12.3055C412.898 12.6478 412.548 13.1223 412.314 13.729C412.081 14.3201 411.964 15.0046 411.964 15.7825C411.964 16.5292 412.073 17.2059 412.291 17.8126C412.524 18.4194 412.874 18.8939 413.341 19.2361C413.823 19.5784 414.438 19.7495 415.185 19.7495C415.745 19.7495 416.227 19.6484 416.631 19.4461C417.036 19.2439 417.355 18.9639 417.588 18.606C417.837 18.2482 417.993 17.8438 418.055 17.3926H421.205C421.143 18.4194 420.839 19.3217 420.295 20.0995C419.766 20.8618 419.058 21.4607 418.171 21.8963C417.3 22.3319 416.305 22.5497 415.185 22.5497Z" fill="#110B08"/>
<path d="M425.25 21.8263C426.013 22.1219 426.977 22.2697 428.144 22.2697H429.964V19.4928H427.98C427.358 19.4928 426.876 19.3294 426.534 19.0027C426.207 18.6605 426.044 18.1782 426.044 17.556L426.055 11.8155H429.964V9.43528H426.06L426.067 5.86498H423.033L423.026 9.43528H421.003V11.8155H423.021L423.01 17.3459C423.01 18.5749 423.197 19.555 423.57 20.2862C423.943 21.0018 424.504 21.5152 425.25 21.8263Z" fill="#110B08"/>
<path d="M435.837 22.503C434.374 22.503 433.239 22.0208 432.43 21.0563C431.636 20.0917 431.24 18.6605 431.24 16.7626V9.41195H434.483V17.0426C434.483 17.8204 434.701 18.4427 435.137 18.9094C435.572 19.3606 436.163 19.5861 436.91 19.5861C437.657 19.5861 438.264 19.345 438.73 18.8627C439.212 18.3805 439.454 17.7271 439.454 16.9026V9.41195H442.697V22.1063H440.13V19.1556C440.065 19.4241 439.987 19.6765 439.897 19.9128C439.57 20.7685 439.08 21.4141 438.427 21.8497C437.773 22.2852 436.957 22.503 435.977 22.503H435.837Z" fill="#110B08"/>
<path d="M445.746 21.4063C446.742 22.1375 448.111 22.503 449.853 22.503C450.974 22.503 451.946 22.3319 452.77 21.9897C453.595 21.6474 454.233 21.1729 454.684 20.5662C455.151 19.9439 455.384 19.2128 455.384 18.3727C455.384 17.237 454.956 16.3347 454.101 15.6658C453.26 14.9969 452.094 14.5846 450.6 14.429L449.48 14.3124C448.796 14.2346 448.298 14.0868 447.987 13.869C447.691 13.6512 447.543 13.3401 447.543 12.9356C447.543 12.5155 447.73 12.1733 448.103 11.9088C448.477 11.6444 449.006 11.5121 449.69 11.5121C450.452 11.5121 451.036 11.6677 451.44 11.9788C451.845 12.29 452.063 12.6633 452.094 13.0989H455.011C454.964 11.7766 454.458 10.7732 453.494 10.0887C452.529 9.40417 451.269 9.06192 449.713 9.06192C448.718 9.06192 447.831 9.21749 447.053 9.52862C446.291 9.8242 445.692 10.2676 445.256 10.8587C444.821 11.4499 444.603 12.1811 444.603 13.0523C444.603 14.1412 444.984 15.0124 445.746 15.6658C446.509 16.3192 447.598 16.7237 449.013 16.8792L450.134 16.9959C450.974 17.0737 451.565 17.237 451.907 17.486C452.265 17.7349 452.444 18.0693 452.444 18.4894C452.444 18.9716 452.21 19.3528 451.744 19.6328C451.293 19.9128 450.678 20.0528 449.9 20.0528C448.967 20.0528 448.282 19.8739 447.847 19.5161C447.411 19.1583 447.17 18.7616 447.123 18.326H444.206C444.253 19.6328 444.766 20.6596 445.746 21.4063Z" fill="#110B08"/>
<path fill-rule="evenodd" clip-rule="evenodd" d="M360.396 0C352.664 0 346.396 6.26801 346.396 14C346.396 21.732 352.664 28 360.396 28C368.128 28 374.396 21.732 374.396 14C374.396 6.26801 368.128 0 360.396 0ZM349.536 14C349.536 8.00178 354.398 3.13927 360.396 3.13927C366.395 3.13927 371.257 8.00178 371.257 14C371.257 19.4741 367.207 24.0023 361.94 24.7518V22.3562L364.728 21.3271C366.339 20.7324 367.409 19.1969 367.409 17.4796V12.7626C367.409 11.8957 366.706 11.193 365.839 11.193C364.972 11.193 364.27 11.8957 364.27 12.7626V17.4796C364.27 17.8824 364.019 18.2426 363.641 18.3821L361.94 19.0098V6.58543C361.94 5.71854 361.238 5.01579 360.371 5.01579C359.504 5.01579 358.801 5.71854 358.801 6.58543V13.3202L357.151 12.7113C356.774 12.5717 356.523 12.2116 356.523 11.8088V9.77533C356.523 8.90844 355.82 8.20569 354.953 8.20569C354.086 8.20569 353.383 8.90844 353.383 9.77533V11.8088C353.383 13.5261 354.453 15.0615 356.064 15.6563L358.801 16.6666V24.7444C353.559 23.9727 349.536 19.4562 349.536 14Z" fill="#110B08"/>
<path d="M564.135 4.18104C564.564 4.63131 565.218 4.85644 566.097 4.85644C566.976 4.85644 567.62 4.63131 568.027 4.18104C568.434 3.70934 568.638 3.13042 568.638 2.4443C568.638 1.7153 568.434 1.12567 568.027 0.675399C567.62 0.225133 566.976 0 566.097 0C565.218 0 564.564 0.225133 564.135 0.675399C563.728 1.12567 563.524 1.7153 563.524 2.4443C563.524 3.13042 563.728 3.70934 564.135 4.18104Z" fill="#110B08"/>
<path d="M543.719 6.94696L549.186 24.4109H556.358L561.086 6.94696H556.776L553.219 20.7444H552.46L548.318 6.94696H543.719Z" fill="#110B08"/>
<path d="M578.808 24.9576C576.406 24.9576 574.519 24.4537 573.147 23.446C571.796 22.4168 571.089 21.0017 571.024 19.2006H575.045C575.109 19.801 575.441 20.3477 576.042 20.8409C576.642 21.334 577.585 21.5806 578.872 21.5806C579.944 21.5806 580.791 21.3876 581.413 21.0017C582.056 20.6158 582.378 20.0904 582.378 19.4258C582.378 18.8469 582.131 18.3859 581.638 18.0428C581.166 17.6997 580.351 17.4746 579.193 17.3674L577.65 17.2066C575.699 16.9922 574.198 16.4347 573.147 15.5342C572.096 14.6336 571.571 13.4329 571.571 11.9321C571.571 10.7313 571.871 9.7236 572.472 8.90884C573.072 8.09407 573.898 7.48299 574.948 7.07561C576.02 6.64678 577.242 6.43237 578.615 6.43237C580.759 6.43237 582.495 6.90408 583.825 7.84749C585.154 8.79091 585.851 10.1739 585.915 11.9964H581.895C581.852 11.396 581.552 10.8814 580.995 10.4526C580.437 10.0238 579.633 9.80937 578.582 9.80937C577.639 9.80937 576.91 9.99162 576.395 10.3561C575.881 10.7206 575.624 11.1923 575.624 11.7712C575.624 12.3287 575.827 12.7575 576.235 13.0577C576.663 13.3579 577.35 13.5616 578.293 13.6688L579.837 13.8296C581.895 14.044 583.503 14.6122 584.661 15.5342C585.84 16.4562 586.43 17.6997 586.43 19.265C586.43 20.4228 586.108 21.4305 585.465 22.2882C584.843 23.1244 583.964 23.7783 582.828 24.25C581.691 24.7218 580.351 24.9576 578.808 24.9576Z" fill="#110B08"/>
<path d="M589.029 4.18104C589.458 4.63131 590.112 4.85644 590.991 4.85644C591.87 4.85644 592.514 4.63131 592.921 4.18104C593.328 3.70934 593.532 3.13042 593.532 2.4443C593.532 1.7153 593.328 1.12567 592.921 0.675399C592.514 0.225133 591.87 0 590.991 0C590.112 0 589.458 0.225133 589.029 0.675399C588.622 1.12567 588.418 1.7153 588.418 2.4443C588.418 3.13042 588.622 3.70934 589.029 4.18104Z" fill="#110B08"/>
<path fill-rule="evenodd" clip-rule="evenodd" d="M605.76 25.0219C604.216 25.0219 602.855 24.7754 601.675 24.2822C600.496 23.7891 599.499 23.1244 598.684 22.2882C597.87 21.4305 597.248 20.4657 596.819 19.3936C596.412 18.3215 596.208 17.2066 596.208 16.0488V15.3734C596.208 14.1727 596.422 13.0363 596.851 11.9642C597.301 10.8707 597.934 9.90585 598.749 9.06964C599.585 8.212 600.593 7.54732 601.772 7.07561C602.951 6.58246 604.28 6.33589 605.76 6.33589C607.239 6.33589 608.569 6.58246 609.748 7.07561C610.927 7.54732 611.924 8.212 612.739 9.06964C613.575 9.90585 614.208 10.8707 614.637 11.9642C615.065 13.0363 615.28 14.1727 615.28 15.3734V16.0488C615.28 17.2066 615.065 18.3215 614.637 19.3936C614.229 20.4657 613.618 21.4305 612.803 22.2882C611.989 23.1244 610.992 23.7891 609.812 24.2822C608.633 24.7754 607.282 25.0219 605.76 25.0219ZM605.76 21.1947C606.853 21.1947 607.775 20.9588 608.526 20.4871C609.276 19.994 609.845 19.34 610.23 18.5252C610.616 17.689 610.809 16.7456 610.809 15.695C610.809 14.6229 610.606 13.6795 610.198 12.8647C609.812 12.0285 609.233 11.3746 608.462 10.9029C607.711 10.4097 606.811 10.1631 605.76 10.1631C604.709 10.1631 603.798 10.4097 603.026 10.9029C602.276 11.3746 601.697 12.0285 601.289 12.8647C600.882 13.6795 600.678 14.6229 600.678 15.695C600.678 16.7456 600.871 17.689 601.257 18.5252C601.665 19.34 602.244 19.994 602.994 20.4871C603.744 20.9588 604.666 21.1947 605.76 21.1947Z" fill="#110B08"/>
<path d="M621.51 10.0023C621.356 10.3865 621.228 10.8026 621.124 11.2505V6.94696H617.586V24.4109H622.057V14.1512C622.057 13.0148 622.389 12.1143 623.054 11.4496C623.74 10.7635 624.63 10.4204 625.723 10.4204C626.795 10.4204 627.631 10.7528 628.232 11.4175C628.854 12.0821 629.164 12.9505 629.164 14.0226V24.4109H633.635V14.4085C633.635 11.7498 633.099 9.75576 632.027 8.42641C630.955 7.07561 629.379 6.40021 627.299 6.40021H627.106C625.712 6.40021 624.544 6.70039 623.6 7.30074C622.679 7.9011 621.982 8.80163 621.51 10.0023Z" fill="#110B08"/>
<path d="M564.457 10.2918V24.4109H568.928V6.94696H562.013V10.2918H564.457Z" fill="#110B08"/>
<path d="M589.351 10.2918V24.4109H593.822V6.94696H586.907V10.2918H589.351Z" fill="#110B08"/>
<mask id="path-13-inside-1_301_356" fill="white">
<path fill-rule="evenodd" clip-rule="evenodd" d="M524.384 28C532.116 28 538.384 21.732 538.384 14C538.384 6.26801 532.116 0 524.384 0C516.652 0 510.384 6.26801 510.384 14C510.384 21.732 516.652 28 524.384 28ZM534.687 12.5468C533.381 14.0733 531.543 15.024 529.505 15.024C525.545 15.024 522.335 11.4314 522.335 6.99962C522.335 5.88465 522.538 4.8228 522.905 3.85791C517.942 4.61163 514.14 8.8965 514.14 14.0696C514.14 15.5789 514.463 17.0126 515.045 18.3051C515.635 17.756 516.465 17.4143 517.384 17.4143C519.175 17.4143 520.627 18.7138 520.627 20.3168C520.627 21.3932 519.973 22.3327 519 22.8338C520.586 23.8256 522.46 24.3988 524.469 24.3988C530.174 24.3988 534.798 19.7743 534.798 14.0696C534.798 13.5522 534.76 13.0437 534.687 12.5468Z"/>
</mask>
<path fill-rule="evenodd" clip-rule="evenodd" d="M524.384 28C532.116 28 538.384 21.732 538.384 14C538.384 6.26801 532.116 0 524.384 0C516.652 0 510.384 6.26801 510.384 14C510.384 21.732 516.652 28 524.384 28ZM534.687 12.5468C533.381 14.0733 531.543 15.024 529.505 15.024C525.545 15.024 522.335 11.4314 522.335 6.99962C522.335 5.88465 522.538 4.8228 522.905 3.85791C517.942 4.61163 514.14 8.8965 514.14 14.0696C514.14 15.5789 514.463 17.0126 515.045 18.3051C515.635 17.756 516.465 17.4143 517.384 17.4143C519.175 17.4143 520.627 18.7138 520.627 20.3168C520.627 21.3932 519.973 22.3327 519 22.8338C520.586 23.8256 522.46 24.3988 524.469 24.3988C530.174 24.3988 534.798 19.7743 534.798 14.0696C534.798 13.5522 534.76 13.0437 534.687 12.5468Z" fill="#110B08"/>
<path d="M534.687 12.5468L537.332 12.156L536.473 6.34446L532.655 10.8092L534.687 12.5468ZM522.905 3.85791L525.404 4.80889L527.033 0.526673L522.504 1.21468L522.905 3.85791ZM515.045 18.3051L512.607 19.4026L514.137 22.8014L516.866 20.2626L515.045 18.3051ZM519 22.8338L517.775 20.4572L513.598 22.6092L517.582 25.1006L519 22.8338ZM535.71 14C535.71 20.2554 530.639 25.3265 524.384 25.3265V30.6735C533.592 30.6735 541.057 23.2085 541.057 14H535.71ZM524.384 2.67355C530.639 2.67355 535.71 7.74457 535.71 14H541.057C541.057 4.79145 533.592 -2.67355 524.384 -2.67355V2.67355ZM513.057 14C513.057 7.74457 518.128 2.67355 524.384 2.67355V-2.67355C515.175 -2.67355 507.71 4.79145 507.71 14H513.057ZM524.384 25.3265C518.128 25.3265 513.057 20.2554 513.057 14H507.71C507.71 23.2085 515.175 30.6735 524.384 30.6735V25.3265ZM529.505 17.6976C532.41 17.6976 534.964 16.3359 536.719 14.2844L532.655 10.8092C531.798 11.8108 530.675 12.3505 529.505 12.3505V17.6976ZM519.661 6.99962C519.661 12.6172 523.794 17.6976 529.505 17.6976V12.3505C527.296 12.3505 525.008 10.2455 525.008 6.99962H519.661ZM520.406 2.90693C519.924 4.17496 519.661 5.55903 519.661 6.99962H525.008C525.008 6.21028 525.152 5.47065 525.404 4.80889L520.406 2.90693ZM516.813 14.0696C516.813 10.2379 519.631 7.05942 523.306 6.50114L522.504 1.21468C516.254 2.16384 511.466 7.55512 511.466 14.0696H516.813ZM517.483 17.2077C517.054 16.2534 516.813 15.1932 516.813 14.0696H511.466C511.466 15.9647 511.873 17.7719 512.607 19.4026L517.483 17.2077ZM517.384 14.7408C515.803 14.7408 514.319 15.3289 513.224 16.3477L516.866 20.2626C516.952 20.1831 517.127 20.0879 517.384 20.0879V14.7408ZM523.301 20.3168C523.301 16.9654 520.364 14.7408 517.384 14.7408V20.0879C517.634 20.0879 517.807 20.1783 517.895 20.2569C517.978 20.3313 517.954 20.3565 517.954 20.3168H523.301ZM520.224 25.2105C521.949 24.3219 523.301 22.5403 523.301 20.3168H517.954C517.954 20.3128 517.955 20.3068 517.956 20.3027C517.957 20.2994 517.956 20.3047 517.947 20.3178C517.929 20.3461 517.878 20.4044 517.775 20.4572L520.224 25.2105ZM524.469 21.7253C522.976 21.7253 521.591 21.3007 520.417 20.567L517.582 25.1006C519.581 26.3505 521.945 27.0724 524.469 27.0724V21.7253ZM532.125 14.0696C532.125 18.2977 528.697 21.7253 524.469 21.7253V27.0724C531.65 27.0724 537.472 21.2508 537.472 14.0696H532.125ZM532.042 12.9376C532.096 13.3056 532.125 13.6834 532.125 14.0696H537.472C537.472 13.421 537.424 12.7819 537.332 12.156L532.042 12.9376Z" fill="#110B08" mask="url(#path-13-inside-1_301_356)"/>
<path d="M737.934 25.015C735.717 25.015 733.758 24.5795 732.055 23.7086C730.353 22.8178 729.037 21.5609 728.106 19.9377C727.176 18.3146 726.711 16.4044 726.711 14.2072C726.711 12.01 727.176 10.0999 728.106 8.47671C729.037 6.83377 730.353 5.57682 732.055 4.70586C733.758 3.81511 735.717 3.36973 737.934 3.36973C739.439 3.36973 740.765 3.52809 741.913 3.8448C743.081 4.14172 744.15 4.61679 745.12 5.27V9.5753C744.249 8.8627 743.249 8.34804 742.121 8.03133C741.012 7.69483 739.746 7.52657 738.32 7.52657C736.994 7.52657 735.797 7.8037 734.728 8.35794C733.679 8.89239 732.847 9.66438 732.234 10.6739C731.62 11.6834 731.313 12.8612 731.313 14.2072C731.313 15.573 731.59 16.7706 732.145 17.7999C732.719 18.8094 733.52 19.5913 734.55 20.1456C735.579 20.6998 736.767 20.9769 738.113 20.9769C739.34 20.9769 740.409 20.7592 741.319 20.3237V16.3153H737.964V12.9898H745.684V22.996C743.724 24.342 741.141 25.015 737.934 25.015Z" fill="#110B08"/>
<path d="M746.726 10.3176H751.061V12.3663C751.635 11.6735 752.437 11.149 753.466 10.7927C754.496 10.4166 755.663 10.2285 756.97 10.2285V13.6431C755.604 13.6431 754.397 13.8509 753.347 14.2666C752.318 14.6823 751.606 15.3157 751.21 16.1669V24.5696H746.726V10.3176Z" fill="#110B08"/>
<path d="M765.586 25.015C762.854 25.015 760.706 24.3618 759.143 23.0553C757.579 21.7291 756.797 19.8783 756.797 17.503C756.797 15.1474 757.49 13.2868 758.875 11.9209C760.281 10.5551 762.28 9.87222 764.873 9.87222C766.575 9.87222 768.02 10.1889 769.208 10.8224C770.396 11.4558 771.296 12.3366 771.91 13.4649C772.524 14.5734 772.831 15.8304 772.831 17.2358V19.047H761.073C761.389 20.868 763.092 21.7786 766.18 21.7786C767.09 21.7786 768.03 21.6994 769 21.5411C769.97 21.3827 770.811 21.165 771.524 20.8878V24.0352C770.831 24.3321 769.941 24.5696 768.852 24.7478C767.763 24.9259 766.674 25.015 765.586 25.015ZM768.585 16.1372C768.525 15.187 768.169 14.4546 767.516 13.94C766.862 13.4055 765.962 13.1383 764.814 13.1383C763.685 13.1383 762.795 13.4055 762.141 13.94C761.488 14.4744 761.132 15.2068 761.073 16.1372H768.585Z" fill="#110B08"/>
<path d="M782.021 25.015C779.289 25.015 777.141 24.3618 775.577 23.0553C774.014 21.7291 773.232 19.8783 773.232 17.503C773.232 15.1474 773.925 13.2868 775.31 11.9209C776.716 10.5551 778.715 9.87222 781.308 9.87222C783.01 9.87222 784.455 10.1889 785.643 10.8224C786.831 11.4558 787.731 12.3366 788.345 13.4649C788.959 14.5734 789.265 15.8304 789.265 17.2358V19.047H777.507C777.824 20.868 779.526 21.7786 782.614 21.7786C783.525 21.7786 784.465 21.6994 785.435 21.5411C786.405 21.3827 787.246 21.165 787.959 20.8878V24.0352C787.266 24.3321 786.375 24.5696 785.287 24.7478C784.198 24.9259 783.109 25.015 782.021 25.015ZM785.019 16.1372C784.96 15.187 784.604 14.4546 783.951 13.94C783.297 13.4055 782.397 13.1383 781.249 13.1383C780.12 13.1383 779.23 13.4055 778.576 13.94C777.923 14.4744 777.567 15.2068 777.507 16.1372H785.019Z" fill="#110B08"/>
<path d="M790.26 10.3176H794.595V12.0694C795.249 11.337 796.021 10.7927 796.911 10.4364C797.822 10.0603 798.772 9.87222 799.762 9.87222C801.702 9.87222 803.147 10.3968 804.097 11.4459C805.067 12.4752 805.552 13.8707 805.552 15.6324V24.5696H801.068V16.1372C801.068 14.2963 800.217 13.3758 798.515 13.3758C797.763 13.3758 797.06 13.5639 796.407 13.94C795.753 14.2963 795.199 14.8307 794.744 15.5433V24.5696H790.26V10.3176Z" fill="#110B08"/>
<path d="M809.508 8.12041C808.815 8.12041 808.231 7.89277 807.756 7.4375C807.281 6.98223 807.043 6.40819 807.043 5.71538C807.043 5.04237 807.281 4.47822 807.756 4.02295C808.231 3.54788 808.815 3.31035 809.508 3.31035C810.2 3.31035 810.784 3.54788 811.259 4.02295C811.735 4.47822 811.972 5.04237 811.972 5.71538C811.972 6.40819 811.735 6.98223 811.259 7.4375C810.784 7.89277 810.2 8.12041 809.508 8.12041ZM807.251 10.3176H811.764V24.5696H807.251V10.3176Z" fill="#110B08"/>
<path d="M819.411 25.015C818.342 25.015 817.194 24.8962 815.967 24.6587C814.759 24.441 813.809 24.1242 813.116 23.7086V20.2049C813.908 20.68 814.858 21.066 815.967 21.3629C817.075 21.6598 818.104 21.8083 819.054 21.8083C819.866 21.8083 820.46 21.739 820.836 21.6004C821.212 21.4619 821.4 21.2046 821.4 20.8285C821.4 20.5315 821.291 20.294 821.074 20.1159C820.856 19.9179 820.519 19.7497 820.064 19.6111C819.629 19.4527 818.896 19.2251 817.867 18.9282C816.659 18.5719 815.709 18.2156 815.016 17.8593C814.343 17.4832 813.829 17.018 813.472 16.4638C813.136 15.9095 812.968 15.1969 812.968 14.326C812.968 12.8414 813.552 11.7329 814.719 11.0005C815.907 10.2483 817.511 9.87222 819.53 9.87222C820.519 9.87222 821.539 9.98109 822.588 10.1988C823.657 10.3968 824.478 10.664 825.052 11.0005V14.4151C824.478 14.039 823.726 13.7321 822.796 13.4946C821.885 13.2571 820.994 13.1383 820.123 13.1383C819.312 13.1383 818.678 13.2175 818.223 13.3758C817.788 13.5342 817.57 13.8311 817.57 14.2666C817.57 14.6427 817.778 14.9297 818.193 15.1277C818.629 15.3256 819.431 15.573 820.598 15.8699L821.192 16.0184C822.439 16.3549 823.409 16.731 824.102 17.1467C824.795 17.5426 825.28 18.0275 825.557 18.6016C825.854 19.1558 826.002 19.8585 826.002 20.7097C826.002 22.0161 825.438 23.0652 824.31 23.857C823.182 24.629 821.549 25.015 819.411 25.015Z" fill="#110B08"/>
<path d="M827.039 2.62744H831.522V11.9506C832.195 11.2578 832.957 10.7432 833.808 10.4067C834.66 10.0504 835.57 9.87222 836.54 9.87222C838.48 9.87222 839.925 10.3968 840.875 11.4459C841.845 12.4752 842.33 13.8707 842.33 15.6324V24.5696H837.847V16.1372C837.847 14.2963 836.995 13.3758 835.293 13.3758C834.541 13.3758 833.838 13.5639 833.185 13.94C832.532 14.2963 831.977 14.8307 831.522 15.5433V24.5696H827.039V2.62744Z" fill="#110B08"/>
<path fill-rule="evenodd" clip-rule="evenodd" d="M711.397 6.82887C711.397 10.6004 708.34 13.6577 704.568 13.6577C700.797 13.6577 697.739 10.6004 697.739 6.82887C697.739 3.05739 700.797 0 704.568 0C708.34 0 711.397 3.05739 711.397 6.82887ZM688.684 13.1607C696.124 12.6592 702.608 18.2294 703.212 25.685C703.275 26.4576 703.272 27.2204 703.208 27.9679C695.768 28.4694 689.284 22.8991 688.68 15.4435C688.617 14.6709 688.62 13.9081 688.684 13.1607ZM708.023 27.7071C715.478 27.1031 721.048 20.6191 720.547 13.1792C719.799 13.1153 719.037 13.1123 718.264 13.1749C710.808 13.7788 705.238 20.2629 705.74 27.7028C706.487 27.7667 707.25 27.7697 708.023 27.7071Z" fill="#110B08"/>
<path d="M957.692 26.1773C955.608 26.1773 953.819 25.809 952.325 25.0723C950.83 24.3357 949.609 23.378 948.662 22.1994C947.736 21.0207 947.052 19.7368 946.61 18.3477C946.168 16.9586 945.947 15.6221 945.947 14.3382V13.6436C945.947 12.2124 946.168 10.8022 946.61 9.41313C947.073 8.02401 947.778 6.76117 948.726 5.62462C949.673 4.48806 950.872 3.58303 952.325 2.90952C953.798 2.21496 955.534 1.86768 957.534 1.86768C959.617 1.86768 961.428 2.24653 962.964 3.00423C964.521 3.74089 965.763 4.79325 966.689 6.16132C967.615 7.50835 968.173 9.0869 968.363 10.897H963.848C963.68 9.8446 963.301 8.96061 962.711 8.245C962.143 7.50835 961.417 6.96112 960.533 6.60332C959.649 6.22446 958.649 6.03504 957.534 6.03504C956.397 6.03504 955.387 6.23499 954.503 6.63489C953.619 7.01374 952.882 7.56097 952.293 8.27657C951.704 8.99218 951.251 9.83407 950.935 10.8022C950.641 11.7704 950.493 12.8438 950.493 14.0225C950.493 15.159 950.641 16.2114 950.935 17.1796C951.251 18.1478 951.714 19.0002 952.325 19.7368C952.935 20.4524 953.682 21.0102 954.566 21.4101C955.471 21.81 956.513 22.0099 957.692 22.0099C959.418 22.0099 960.87 21.589 962.048 20.7471C963.248 19.8842 963.974 18.6845 964.227 17.148H968.741C968.531 18.7897 967.973 20.2946 967.068 21.6626C966.163 23.0307 964.921 24.1252 963.343 24.946C961.764 25.7669 959.881 26.1773 957.692 26.1773Z" fill="#110B08"/>
<path d="M970.82 25.5774V2.53067H975.208V25.5774H970.82ZM968.673 5.81404V2.53067H975.208V5.81404H968.673Z" fill="#110B08"/>
<path d="M986.879 26.1773C985.364 26.1773 984.028 25.9352 982.87 25.4512C981.712 24.9671 980.734 24.3146 979.934 23.4938C979.134 22.6519 978.524 21.7047 978.103 20.6524C977.703 19.6 977.503 18.5056 977.503 17.369V16.706C977.503 15.5274 977.713 14.4119 978.134 13.3595C978.576 12.2861 979.197 11.339 979.997 10.5181C980.818 9.67622 981.807 9.02375 982.965 8.56071C984.122 8.07663 985.427 7.83458 986.879 7.83458C988.332 7.83458 989.637 8.07663 990.794 8.56071C991.952 9.02375 992.931 9.67622 993.73 10.5181C994.551 11.339 995.172 12.2861 995.593 13.3595C996.014 14.4119 996.224 15.5274 996.224 16.706V17.369C996.224 18.5056 996.014 19.6 995.593 20.6524C995.193 21.7047 994.593 22.6519 993.794 23.4938C992.994 24.3146 992.015 24.9671 990.857 25.4512C989.7 25.9352 988.374 26.1773 986.879 26.1773ZM986.879 22.4204C987.953 22.4204 988.858 22.1888 989.595 21.7258C990.331 21.2417 990.889 20.5998 991.268 19.8C991.647 18.9791 991.836 18.053 991.836 17.0217C991.836 15.9694 991.636 15.0433 991.236 14.2435C990.857 13.4226 990.289 12.7807 989.531 12.3177C988.795 11.8336 987.911 11.5915 986.879 11.5915C985.848 11.5915 984.954 11.8336 984.196 12.3177C983.459 12.7807 982.891 13.4226 982.491 14.2435C982.091 15.0433 981.891 15.9694 981.891 17.0217C981.891 18.053 982.081 18.9791 982.46 19.8C982.859 20.5998 983.428 21.2417 984.164 21.7258C984.901 22.1888 985.806 22.4204 986.879 22.4204Z" fill="#110B08"/>
<path d="M1004.33 26.1141C1002.35 26.1141 1000.81 25.4617 999.72 24.1568C998.646 22.8518 998.11 20.9155 998.11 18.3477V8.40286H1002.5V18.7266C1002.5 19.7789 1002.79 20.6208 1003.38 21.2522C1003.97 21.8626 1004.77 22.1678 1005.78 22.1678C1006.79 22.1678 1007.61 21.8416 1008.24 21.1891C1008.9 20.5366 1009.22 19.6526 1009.22 18.5371V8.40286H1013.61V25.5774H1010.14V18.2846H1010.49C1010.49 20.0104 1010.26 21.4522 1009.82 22.6098C1009.38 23.7674 1008.72 24.6408 1007.83 25.2302C1006.95 25.8195 1005.84 26.1141 1004.52 26.1141H1004.33Z" fill="#110B08"/>
<path d="M1024.18 26.1457C1022.98 26.1457 1021.87 25.9247 1020.86 25.4827C1019.85 25.0407 1018.98 24.4198 1018.24 23.62C1017.5 22.8202 1016.94 21.8942 1016.54 20.8418C1016.14 19.7684 1015.94 18.6108 1015.94 17.369V16.706C1015.94 15.4853 1016.13 14.3382 1016.51 13.2648C1016.9 12.1914 1017.45 11.2548 1018.15 10.455C1018.86 9.65517 1019.71 9.03428 1020.7 8.59228C1021.71 8.12924 1022.83 7.89772 1024.05 7.89772C1025.4 7.89772 1026.58 8.19239 1027.59 8.78171C1028.62 9.34999 1029.44 10.2129 1030.05 11.3705C1030.66 12.5281 1031 13.9804 1031.06 15.7273L1029.76 14.2119V2.53067L1034.15 2.53067V25.5774H1030.68V18.2846H1031.44C1031.37 20.0315 1031.02 21.4943 1030.36 22.6729C1029.71 23.8305 1028.85 24.704 1027.78 25.2933C1026.72 25.8616 1025.52 26.1457 1024.18 26.1457ZM1025.16 22.4519C1026.02 22.4519 1026.81 22.2625 1027.52 21.8836C1028.24 21.4837 1028.81 20.9155 1029.23 20.1788C1029.67 19.4211 1029.89 18.5371 1029.89 17.5269V16.264C1029.89 15.2537 1029.67 14.4119 1029.23 13.7383C1028.79 13.0438 1028.21 12.5176 1027.49 12.1598C1026.78 11.7809 1026 11.5915 1025.16 11.5915C1024.21 11.5915 1023.37 11.823 1022.63 12.2861C1021.91 12.7281 1021.35 13.3595 1020.93 14.1803C1020.53 15.0012 1020.33 15.9588 1020.33 17.0533C1020.33 18.1478 1020.54 19.1054 1020.96 19.9262C1021.38 20.726 1021.95 21.3469 1022.66 21.7889C1023.4 22.2309 1024.23 22.4519 1025.16 22.4519Z" fill="#110B08"/>
<path d="M929.414 28.0002C927.898 28.0002 926.963 27.3002 925.437 26.4758C923.911 25.6514 919.497 22.3321 919.497 18.2002C919.497 15.3973 918.774 13.1303 917.544 11.3235C916.322 9.53068 914.668 8.28859 912.947 7.41177C912.117 6.98931 911.254 6.64386 910.394 6.35835C909.893 6.19201 909.603 5.65402 909.82 5.173C911.198 2.12257 914.267 0.000244141 917.831 0.000244141C922.684 0.000244141 926.618 3.93387 926.618 8.78647C926.618 9.82463 926.437 10.8208 926.107 11.7453C927.507 10.8015 929.195 10.2507 931.011 10.2507C935.863 10.2507 939.797 14.1844 939.797 19.037C939.797 24.8787 934.663 28.0002 929.414 28.0002Z" fill="#110B08"/>
<path d="M897.33 18.3048C897.33 22.9362 900.383 26.7951 904.429 27.6477C905.053 27.8758 905.727 28.0002 906.43 28.0002H920.081C920.539 28.0002 920.738 27.388 920.389 27.0922C918.003 25.0736 916.23 22.2287 916.23 18.2002C916.23 15.9868 915.67 14.3746 914.844 13.1626C914.009 11.9367 912.834 11.0205 911.464 10.3223C910.081 9.61795 908.58 9.16929 907.146 8.85119C906.808 8.80858 906.464 8.78647 906.116 8.78647C901.264 8.78647 897.33 13.048 897.33 18.3048Z" fill="#110B08"/>
<path d="M1263.25 21.5937C1263.39 23.2582 1262.83 24.9711 1261.56 26.2504C1260.29 27.5297 1258.59 28.1081 1256.92 27.9834C1256.78 26.3189 1257.34 24.606 1258.61 23.3267C1259.88 22.0474 1261.59 21.469 1263.25 21.5937Z" fill="#110B08"/>
<path d="M1260.24 19.2806C1258.57 21.0584 1256.17 22.1241 1253.55 22.0044C1250.93 21.8846 1248.63 20.6047 1247.14 18.6832C1248.8 16.9054 1251.21 15.8397 1253.83 15.9595C1256.45 16.0792 1258.74 17.3591 1260.24 19.2806Z" fill="#110B08"/>
<path d="M1246.16 13.5595C1246.51 9.39677 1248.61 5.40649 1252.27 2.77808C1255.93 0.149779 1260.38 -0.567525 1264.44 0.431345C1264.09 4.59404 1261.99 8.58433 1258.33 11.2127C1254.67 13.841 1250.22 14.5583 1246.16 13.5595Z" fill="#110B08"/>
<path d="M1313.6 8.45399V10.9888H1315.12V24.241H1317.82V10.9888H1321.37V8.45399H1317.82V5.86017C1317.82 5.11656 1317.89 4.51954 1318.02 4.06883C1318.16 3.61822 1318.34 3.3028 1318.57 3.12248C1318.81 2.91974 1319.11 2.81837 1319.44 2.81837C1319.71 2.81837 1320 2.87471 1320.29 2.98729C1320.6 3.07745 1320.87 3.31401 1321.1 3.69708L1322.59 1.46644C1322.43 1.24108 1322.2 1.02703 1321.91 0.824292C1321.64 0.621452 1321.31 0.452436 1320.93 0.317242C1320.55 0.182049 1320.11 0.114502 1319.61 0.114502C1318.67 0.114502 1317.86 0.317242 1317.18 0.722822C1316.53 1.10589 1316.02 1.69169 1315.66 2.48034C1315.3 3.26898 1315.12 4.28288 1315.12 5.52214V8.45399H1313.6Z" fill="#110B08"/>
<path d="M1271.14 3.28616L1271.14 24.241H1283.3V21.5371H1274.01V3.28616H1271.14Z" fill="#110B08"/>
<path fill-rule="evenodd" clip-rule="evenodd" d="M1290.51 24.5789C1292.18 24.5789 1293.62 24.2522 1294.84 23.5987C1296.07 22.9228 1297.1 21.9313 1297.91 20.6245L1295.71 19.2388C1295.15 20.1851 1294.46 20.8949 1293.65 21.3681C1292.84 21.8187 1291.91 22.044 1290.85 22.044C1289.79 22.044 1288.89 21.8187 1288.14 21.3681C1287.4 20.9174 1286.84 20.264 1286.45 19.4078C1286.16 18.7571 1285.98 18.0023 1285.91 17.1433H1298.15V16.8391C1298.17 16.6589 1298.18 16.4899 1298.18 16.3322C1298.18 14.6873 1297.89 13.2679 1297.3 12.0736C1296.72 10.8794 1295.87 9.96688 1294.77 9.33594C1293.69 8.68259 1292.38 8.35587 1290.85 8.35587C1289.32 8.35587 1287.96 8.6938 1286.79 9.36977C1285.64 10.0457 1284.74 10.9921 1284.09 12.2088C1283.46 13.4256 1283.14 14.845 1283.14 16.4674C1283.14 18.0672 1283.45 19.4753 1284.05 20.6921C1284.69 21.9088 1285.55 22.8665 1286.66 23.565C1287.78 24.241 1289.07 24.5789 1290.51 24.5789ZM1286.49 13.2904C1286.27 13.7477 1286.11 14.266 1286.01 14.845H1295.23C1295.17 14.1046 1294.99 13.4513 1294.67 12.8848C1294.31 12.2088 1293.8 11.6794 1293.15 11.2963C1292.49 10.9132 1291.73 10.7217 1290.85 10.7217C1289.81 10.7217 1288.92 10.9471 1288.18 11.3977C1287.46 11.8258 1286.89 12.4567 1286.49 13.2904Z" fill="#110B08"/>
<path fill-rule="evenodd" clip-rule="evenodd" d="M1309.19 15.7169C1308.76 15.4382 1308.22 15.1927 1307.57 14.9802C1306.82 14.7099 1305.89 14.5747 1304.76 14.5747C1302.85 14.5747 1301.35 15.0366 1300.27 15.9604C1299.21 16.8616 1298.68 18.0672 1298.68 19.5768C1298.68 20.6357 1298.92 21.5371 1299.42 22.2806C1299.92 23.0242 1300.57 23.5987 1301.38 24.0043C1302.21 24.3874 1303.1 24.5789 1304.05 24.5789C1304.91 24.5789 1305.76 24.4212 1306.62 24.1058C1307.5 23.7903 1308.23 23.3058 1308.82 22.6525C1308.96 22.502 1309.08 22.3426 1309.19 22.1743V24.241H1311.89V13.0875C1311.89 12.0736 1311.63 11.2174 1311.11 10.519C1310.62 9.82048 1309.91 9.29091 1308.99 8.93046C1308.08 8.5474 1307.02 8.35587 1305.81 8.35587C1304.37 8.35587 1303.13 8.56991 1302.09 8.99801C1301.08 9.4261 1300.28 9.8542 1299.69 10.2823L1301.01 12.2764C1301.26 12.0961 1301.59 11.8821 1302.02 11.6342C1302.45 11.3864 1302.97 11.1723 1303.58 10.9921C1304.21 10.8119 1304.91 10.7217 1305.67 10.7217C1306.15 10.7217 1306.6 10.7667 1307.02 10.8569C1307.45 10.9471 1307.82 11.0935 1308.14 11.2963C1308.48 11.499 1308.74 11.7807 1308.92 12.1412C1309.1 12.4792 1309.19 12.9186 1309.19 13.4594V15.7169ZM1301.82 17.9883C1301.55 18.3939 1301.41 18.8783 1301.41 19.4416C1301.41 20.0274 1301.55 20.5344 1301.82 20.9625C1302.11 21.3906 1302.51 21.7173 1303 21.9427C1303.52 22.1454 1304.11 22.2469 1304.76 22.2469C1305.59 22.2469 1306.34 22.0778 1306.99 21.7398C1307.67 21.4019 1308.2 20.9286 1308.58 20.3203C1308.99 19.6894 1309.19 18.9684 1309.19 18.1572V17.5725C1308.75 17.3618 1308.32 17.1962 1307.87 17.0757C1307.04 16.8279 1306.15 16.7039 1305.2 16.7039C1304.32 16.7039 1303.6 16.8166 1303.04 17.042C1302.5 17.2672 1302.09 17.5827 1301.82 17.9883Z" fill="#110B08"/>
<path fill-rule="evenodd" clip-rule="evenodd" d="M1333.1 23.5987C1331.89 24.2522 1330.44 24.5789 1328.78 24.5789C1327.33 24.5789 1326.05 24.241 1324.92 23.565C1323.82 22.8665 1322.95 21.9088 1322.32 20.6921C1321.71 19.4753 1321.41 18.0672 1321.41 16.4674C1321.41 14.845 1321.72 13.4256 1322.35 12.2088C1323.01 10.9921 1323.91 10.0457 1325.06 9.36977C1326.23 8.6938 1327.58 8.35587 1329.11 8.35587C1330.65 8.35587 1331.95 8.68259 1333.04 9.33594C1334.14 9.96688 1334.98 10.8794 1335.57 12.0736C1336.16 13.2679 1336.45 14.6873 1336.45 16.3322C1336.45 16.4899 1336.44 16.6589 1336.41 16.8391V17.1433H1324.18C1324.25 18.0023 1324.43 18.7571 1324.72 19.4078C1325.1 20.264 1325.67 20.9174 1326.41 21.3681C1327.15 21.8187 1328.06 22.044 1329.11 22.044C1330.17 22.044 1331.11 21.8187 1331.92 21.3681C1332.73 20.8949 1333.42 20.1851 1333.98 19.2388L1336.18 20.6245C1335.37 21.9313 1334.34 22.9228 1333.1 23.5987ZM1324.28 14.845C1324.38 14.266 1324.54 13.7477 1324.75 13.2904C1325.16 12.4567 1325.72 11.8258 1326.44 11.3977C1327.19 10.9471 1328.08 10.7217 1329.11 10.7217C1329.99 10.7217 1330.76 10.9132 1331.41 11.2963C1332.07 11.6794 1332.57 12.2088 1332.93 12.8848C1333.25 13.4513 1333.44 14.1046 1333.49 14.845H1324.28Z" fill="#110B08"/>
<path d="M1101.82 28H1092.71L1101.82 14.2222H1110.93L1101.82 28Z" fill="#110B08"/>
<path d="M1098.49 0L1107.82 0L1098.49 14.2223H1089.15L1098.49 0Z" fill="#110B08"/>
<path d="M1129.52 11.9862C1129.52 12.8312 1129.31 13.6233 1128.91 14.3626C1128.51 15.1019 1127.89 15.6979 1127.03 16.1505C1126.18 16.6032 1125.11 16.8295 1123.81 16.8295H1121.17V22.8949H1118V7.09772H1123.81C1125.04 7.09772 1126.08 7.30895 1126.94 7.73142C1127.8 8.15388 1128.44 8.73477 1128.86 9.47408C1129.3 10.2134 1129.52 11.0508 1129.52 11.9862ZM1123.68 14.2721C1124.55 14.2721 1125.2 14.0759 1125.63 13.6836C1126.05 13.2763 1126.26 12.7105 1126.26 11.9862C1126.26 10.4473 1125.4 9.67777 1123.68 9.67777H1121.17V14.2721H1123.68Z" fill="#110B08"/>
<path d="M1134.03 12.3031C1134.44 11.6392 1134.97 11.1187 1135.61 10.7415C1136.28 10.3643 1137.03 10.1757 1137.88 10.1757V13.5026H1137.04C1136.04 13.5026 1135.29 13.7364 1134.78 14.2042C1134.28 14.6719 1134.03 15.4867 1134.03 16.6484V22.8949H1130.86V10.3567H1134.03V12.3031Z" fill="#110B08"/>
<path d="M1144.67 23.0986C1143.47 23.0986 1142.38 22.8345 1141.42 22.3064C1140.45 21.7633 1139.69 21.0013 1139.13 20.0206C1138.59 19.0399 1138.31 17.9083 1138.31 16.6258C1138.31 15.3433 1138.59 14.2117 1139.15 13.231C1139.73 12.2503 1140.5 11.4959 1141.48 10.9678C1142.46 10.4246 1143.56 10.153 1144.76 10.153C1145.97 10.153 1147.07 10.4246 1148.05 10.9678C1149.03 11.4959 1149.8 12.2503 1150.35 13.231C1150.93 14.2117 1151.21 15.3433 1151.21 16.6258C1151.21 17.9083 1150.92 19.0399 1150.33 20.0206C1149.76 21.0013 1148.97 21.7633 1147.98 22.3064C1147 22.8345 1145.9 23.0986 1144.67 23.0986ZM1144.67 20.3375C1145.25 20.3375 1145.78 20.2017 1146.28 19.9301C1146.79 19.6434 1147.2 19.2209 1147.5 18.6627C1147.81 18.1044 1147.96 17.4255 1147.96 16.6258C1147.96 15.4338 1147.64 14.521 1147.01 13.8873C1146.39 13.2385 1145.62 12.9142 1144.72 12.9142C1143.81 12.9142 1143.05 13.2385 1142.43 13.8873C1141.83 14.521 1141.53 15.4338 1141.53 16.6258C1141.53 17.8178 1141.82 18.7381 1142.41 19.3869C1143.01 20.0206 1143.77 20.3375 1144.67 20.3375Z" fill="#110B08"/>
<path d="M1155.8 20.3827H1159.2V22.8949H1152.63V5.15137H1155.8V20.3827Z" fill="#110B08"/>
<path d="M1161.66 8.86302C1161.1 8.86302 1160.64 8.68951 1160.26 8.34248C1159.9 7.98037 1159.72 7.53527 1159.72 7.00719C1159.72 6.47911 1159.9 6.04156 1160.26 5.69454C1160.64 5.33242 1161.1 5.15137 1161.66 5.15137C1162.22 5.15137 1162.68 5.33242 1163.04 5.69454C1163.42 6.04156 1163.61 6.47911 1163.61 7.00719C1163.61 7.53527 1163.42 7.98037 1163.04 8.34248C1162.68 8.68951 1162.22 8.86302 1161.66 8.86302ZM1163.22 10.3567V22.8949H1160.06V10.3567H1163.22Z" fill="#110B08"/>
<path d="M1172.4 10.1757C1173.89 10.1757 1175.1 10.6509 1176.02 11.6015C1176.94 12.5369 1177.4 13.8496 1177.4 15.5395V22.8949H1174.23V15.9695C1174.23 14.9737 1173.98 14.2117 1173.48 13.6836C1172.99 13.1405 1172.31 12.8689 1171.45 12.8689C1170.57 12.8689 1169.88 13.1405 1169.36 13.6836C1168.87 14.2117 1168.62 14.9737 1168.62 15.9695V22.8949H1165.45V10.3567H1168.62V11.9183C1169.04 11.3752 1169.58 10.9527 1170.22 10.6509C1170.89 10.3341 1171.61 10.1757 1172.4 10.1757Z" fill="#110B08"/>
<path d="M1191.16 16.3542C1191.16 16.8069 1191.13 17.2142 1191.07 17.5763H1181.91C1181.98 18.4816 1182.3 19.1908 1182.86 19.7038C1183.41 20.2167 1184.1 20.4732 1184.92 20.4732C1186.09 20.4732 1186.93 19.9678 1187.43 18.9569H1190.85C1190.48 20.1639 1189.79 21.1597 1188.76 21.9443C1187.74 22.7138 1186.48 23.0986 1184.98 23.0986C1183.78 23.0986 1182.69 22.8345 1181.73 22.3064C1180.77 21.7633 1180.03 21.0013 1179.48 20.0206C1178.96 19.0399 1178.69 17.9083 1178.69 16.6258C1178.69 15.3282 1178.96 14.1891 1179.48 13.2084C1180.01 12.2276 1180.75 11.4732 1181.7 10.9452C1182.65 10.4171 1183.75 10.153 1184.98 10.153C1186.18 10.153 1187.24 10.4095 1188.18 10.9225C1189.13 11.4355 1189.86 12.1673 1190.37 13.1178C1190.9 14.0533 1191.16 15.1321 1191.16 16.3542ZM1187.88 15.4489C1187.87 14.6342 1187.57 13.9854 1187 13.5026C1186.42 13.0047 1185.72 12.7557 1184.89 12.7557C1184.11 12.7557 1183.45 12.9971 1182.9 13.4799C1182.37 13.9477 1182.05 14.604 1181.93 15.4489H1187.88Z" fill="#110B08"/>
</svg>
