<svg width="139" height="28" viewBox="0 0 139 28" fill="none" xmlns="http://www.w3.org/2000/svg">
<path d="M44.7265 6.42146L44.416 6.30204C42.8332 5.69324 41.3492 5.39346 39.9616 5.39346C38.5864 5.39346 37.5591 5.68614 36.8396 6.22976C36.132 6.76442 35.7765 7.4951 35.7765 8.46131C35.7765 9.60517 36.3565 10.5039 37.615 11.1673C38.2041 11.4617 38.8467 11.7397 39.5433 12.0011C40.2781 12.2522 41.0125 12.5389 41.7464 12.8611C42.4905 13.1877 43.1736 13.5609 43.7949 13.9812C44.45 14.4243 44.9734 15.0371 45.3684 15.8077C45.7009 16.4418 45.8893 17.2097 45.9463 18.1007V10.1904V9.85326H46.2834H48.1455H48.4827V10.1904V11.9658C48.7875 11.5684 49.164 11.1912 49.6084 10.8335C50.4787 10.1152 51.4483 9.74685 52.5082 9.74685C53.4991 9.74685 54.3253 9.84516 54.9739 10.054C55.6281 10.2417 56.1485 10.525 56.4903 10.9309L56.4949 10.9364L56.4948 10.9364C56.9969 11.5589 57.2346 12.3485 57.2346 13.2762V21.6025C57.2346 22.0729 57.3233 22.3924 57.4613 22.5988C57.6456 22.8261 57.7795 22.8828 57.8565 22.8892L57.8727 22.8905L57.8888 22.8934L58.1515 22.9412H58.9457H59.2829V23.2784V23.4912V23.8283H58.9457H57.3231C56.5517 23.8283 55.9057 23.6595 55.4337 23.2733L55.4277 23.2684L55.4277 23.2683C55.0224 22.9209 54.7505 22.5238 54.7253 22.0738L54.7254 22.0745L55.0619 22.0547L54.7253 22.0734L44.7265 6.42146ZM44.7265 6.42146L44.8501 6.11258L44.9565 5.84656L45.0893 5.51457L44.7501 5.4015C42.9098 4.78806 41.0915 4.47975 39.2966 4.47975C37.5126 4.47975 36.1117 4.89782 35.1567 5.79349C34.2119 6.66184 33.7455 7.80144 33.7455 9.17955C33.7455 10.9223 34.4746 12.2876 35.9172 13.2374C36.5361 13.6559 37.2165 14.0367 37.9577 14.3801L37.9577 14.3802L37.964 14.3829C38.6922 14.7027 39.4117 15.0136 40.1223 15.3156L40.1251 15.3167C40.8393 15.6129 41.4899 15.934 42.0778 16.2798C43.3358 17.0247 43.9339 18.0294 43.9339 19.3147C43.9339 20.5027 43.4711 21.3775 42.5437 21.9853C41.5974 22.5993 40.4407 22.9146 39.0571 22.9146C38.1163 22.9146 37.1927 22.778 36.2854 22.5045C35.3917 22.212 34.6773 21.8473 34.1317 21.4174L33.8364 21.1848L33.6371 21.5036L33.5041 21.7164L33.3347 21.9876L33.5965 22.1711C35.2047 23.2987 37.137 23.8549 39.3764 23.8549C40.5712 23.8549 41.6256 23.7193 42.5342 23.4411L42.5342 23.4412L42.5383 23.4399C43.4931 23.1343 44.3014 22.5612 44.9605 21.7325C45.5416 21.0021 45.8679 20.1451 45.9463 19.1733L44.7265 6.42146ZM57.7824 23.5595L57.7682 23.5569L57.7801 23.4912H57.5169C57.6013 23.5263 57.6897 23.5499 57.7824 23.5595ZM57.7824 23.5595C57.7884 23.5601 57.7944 23.5606 57.8005 23.5611L57.8063 23.4912H58.0824H58.1211H58.6086H58.9457V23.6155H58.1211H58.0907L58.0608 23.6101L57.7824 23.5595ZM57.8285 23.2252L58.1211 23.2784M57.8285 23.2252L58.1211 23.154V23.2784M57.8285 23.2252C57.7494 23.2186 57.6704 23.1949 57.5914 23.154L57.8285 23.2252ZM58.1211 23.2784H58.6086H58.9457V23.154H58.1437L58.1211 23.2784ZM49.8214 11.0949C50.6372 10.421 51.5328 10.084 52.5082 10.084C52.526 10.084 52.5437 10.084 52.5614 10.0841C53.0367 10.0858 53.4672 10.1111 53.8529 10.1598C53.4749 10.0232 53.0418 9.95966 52.5614 9.95966C52.5436 9.95966 52.5259 9.95976 52.5082 9.95997C51.4914 9.97174 50.5656 10.3212 49.7365 10.9893L49.8214 11.0949ZM49.8214 11.0949L49.7351 10.9904C49.5748 11.1197 49.4181 11.2609 49.265 11.4139M49.8214 11.0949C49.6551 11.2286 49.4995 11.3646 49.3545 11.5028L49.2662 11.4127C49.2658 11.4131 49.2654 11.4135 49.265 11.4139M49.265 11.4139C49.2646 11.4143 49.2642 11.4147 49.2638 11.4151L49.353 11.5043L48.4827 12.303C48.6975 12.0094 48.9601 11.7129 49.265 11.4139ZM53.7922 10.8637C53.7947 10.8649 53.7972 10.866 53.7997 10.8672L53.9447 10.5628L53.7852 10.8599C53.7876 10.8612 53.7899 10.8624 53.7922 10.8637ZM48.2936 13.3154L48.4591 13.3469C48.6783 12.7923 49.0513 12.257 49.5906 11.7436C49.5909 11.7433 49.5912 11.743 49.5915 11.7427C49.7278 11.6129 49.8749 11.4845 50.0327 11.3576L50.0327 11.3576L50.0361 11.3548C50.797 10.7263 51.618 10.4211 52.5082 10.4211C52.526 10.4211 52.5437 10.4212 52.5614 10.4212C53.011 10.4229 53.4143 10.4462 53.7727 10.4896C53.4332 10.3611 53.0294 10.2968 52.5614 10.2968C52.5436 10.2968 52.5259 10.2969 52.5082 10.2971C51.5774 10.3088 50.7246 10.6265 49.9499 11.2503C49.9492 11.2509 49.9485 11.2514 49.9478 11.252C49.7963 11.3741 49.6477 11.5079 49.5022 11.6535C49.0486 12.0982 48.7088 12.5206 48.4827 12.9206L48.2936 13.3154ZM59.4609 11.6811L59.4592 11.6829C58.1745 12.9864 57.5533 14.8017 57.5533 17.0802C57.5533 19.3527 58.154 21.1007 59.4193 22.251C60.6626 23.3812 62.2648 23.9347 64.195 23.9347C66.1554 23.9347 67.7877 23.2933 69.0632 21.9994C70.3658 20.6961 70.9963 18.8806 70.9963 16.6014C70.9963 14.3289 70.3956 12.5809 69.1302 11.4306C67.8864 10.2998 66.275 9.74685 64.328 9.74685C62.384 9.74685 60.7529 10.3891 59.4609 11.6811ZM61.2996 12.3074L61.301 12.3054C62.1323 11.1749 63.1536 10.634 64.3812 10.634C65.6293 10.634 66.6126 11.1037 67.3624 12.0492C68.1092 12.9908 68.5131 14.487 68.5131 16.6014C68.5131 18.6865 68.0783 20.2738 67.2492 21.4019C66.4189 22.5139 65.3977 23.0476 64.1684 23.0476C62.9203 23.0476 61.937 22.5779 61.1871 21.6324C60.4401 20.6904 60.0365 19.2027 60.0365 17.1068C60.0365 15.0023 60.4719 13.4164 61.2996 12.3074ZM88.7305 10.1116L88.4843 10.3578L88.7383 10.596C88.9341 10.7795 89.0574 11.0679 89.0574 11.5205C89.0574 11.9878 88.961 12.3711 88.7826 12.6833L88.7754 12.696L88.7692 12.7092L85.2527 20.3244L81.4643 10.0735L81.3829 9.85326H81.1481H79.286H78.8034L78.9694 10.3064L79.9058 12.8626L76.4736 20.3229L72.6858 10.0735L72.6044 9.85326H72.3696H70.5074H70.0223L70.1915 10.308L75.1393 23.6087L75.221 23.8283H75.4553H75.7213H75.9384L76.0283 23.6307L80.372 14.0794L83.9179 23.6088L83.9996 23.8283H84.2338H84.4999H84.7169L84.8067 23.6308L89.6482 12.9902L89.6483 12.9902L89.6512 12.9834C89.8797 12.4502 89.9977 11.9175 89.9977 11.3875C89.9977 11.2372 89.9771 11.0827 89.9389 10.925C89.9084 10.7188 89.8102 10.5176 89.6776 10.3261C89.6213 10.2331 89.5646 10.1498 89.5072 10.081C89.4521 10.0148 89.3765 9.93746 89.2793 9.88885L89.062 9.78018L88.8901 9.952L88.7305 10.1116Z" fill="#110B08" stroke="#110B08" stroke-width="0.674298"/>
<path d="M94.0813 5.18766C94.5093 4.53129 95.1759 4.01704 96.0906 3.90154L95.859 21.7847H95.859V21.7891C95.859 21.9998 95.9242 22.212 96.0276 22.4187C96.5255 23.4144 97.6891 23.8287 99.2819 23.8287H100.107H100.444V23.4916V23.2787V22.9416H100.107H99.3123L99.0496 22.8938L99.0335 22.8909L99.0173 22.8896C98.9403 22.8832 98.8064 22.8265 98.6221 22.5992C98.4842 22.3928 98.3954 22.0732 98.3954 21.6029V3.56701V3.23533L98.0637 3.2299L96.4379 3.2033L96.0997 3.19777L96.0995 3.21076C94.3604 3.27388 93.0216 3.70877 92.1519 4.5776C91.2228 5.48786 90.8016 6.9744 90.8016 8.94052V9.85364H90.5801H90.2429V10.1908V10.6206V10.9577H90.5801H90.8016V23.4916V23.8287H91.1387H93.0008H93.338V23.4916V10.9577H95.1023H95.4395V10.6206V10.1908V9.85364H95.1023H93.338V8.94052C93.338 7.1295 93.6049 5.90219 94.0794 5.19051L94.0794 5.19052L94.0813 5.18766ZM107.826 12.7807V16.7439C107.525 16.7258 107.203 16.7168 106.86 16.7168C106.37 16.7168 105.838 16.7439 105.264 16.7976C104.11 16.8694 103.146 17.0044 102.378 17.2068C101.614 17.408 101.013 17.6839 100.616 18.0595C100.261 18.3955 100.005 18.7405 99.9103 19.0952C99.8332 19.3843 99.7925 19.6621 99.7925 19.927C99.7925 20.1576 99.8116 20.388 99.8498 20.6179C100.01 21.6889 100.434 22.5325 101.15 23.1035C101.863 23.6717 102.822 23.9351 103.987 23.9351C104.991 23.9351 105.878 23.7279 106.634 23.2994C107.123 23.0221 107.549 22.6566 107.914 22.2069C108.032 22.4922 108.258 22.771 108.537 23.0389C109.082 23.6009 110.028 23.8287 111.249 23.8287H112.074H112.136H112.411H112.473H114.335H114.673V23.4916V17.2068L115.021 16.8071L119.696 23.6812L119.797 23.8287H119.975H121.837H122.474L122.116 23.3019L116.544 15.1127L120.706 10.4144L121.203 9.85364H120.454H120.188H120.036L119.936 9.96705L114.673 15.8999V3.54041V3.20326H114.335H112.473H112.136V3.54041V22.9416H112.074H111.279L111.017 22.8938L111.001 22.8909L110.984 22.8896C110.907 22.8832 110.774 22.8265 110.589 22.5992C110.451 22.3927 110.363 22.0732 110.363 21.6029V12.6913C110.363 12.0238 110.089 11.4059 109.585 10.8439C109.234 10.4508 108.719 10.1794 108.079 10.0051C107.437 9.83053 106.647 9.74724 105.716 9.74724C104.033 9.74724 102.38 10.1227 100.76 10.8688L100.426 11.0228L100.608 11.3423L100.715 11.5285L100.881 11.8199L101.173 11.6548C101.543 11.4459 102.148 11.2241 103.009 10.9955L103.009 10.9955L103.014 10.9943C103.882 10.7512 104.621 10.6343 105.237 10.6343C105.867 10.6343 106.348 10.7201 106.699 10.8724L106.699 10.8726L106.71 10.8772C107.088 11.025 107.302 11.1879 107.407 11.3404C107.551 11.5482 107.661 11.7613 107.739 11.9801L107.744 11.9943L107.751 12.008C107.841 12.2029 107.847 12.3174 107.835 12.3758C107.816 12.4537 107.8 12.5387 107.8 12.6182C107.8 12.6584 107.803 12.7176 107.826 12.7807ZM107.826 20.523C107.779 20.9927 107.45 21.5433 106.72 22.1715C106.034 22.7601 105.268 23.048 104.412 23.048C103.785 23.048 103.335 22.8447 103.015 22.4634C102.683 22.0683 102.458 21.4423 102.381 20.5369L102.381 20.5369L102.38 20.5318C102.364 20.363 102.355 20.2148 102.355 20.0866C102.355 19.3651 102.543 18.8438 102.878 18.4793C103.029 18.3153 103.292 18.1528 103.704 18.0113C104.112 17.8711 104.643 17.7597 105.302 17.6816C105.768 17.6298 106.234 17.604 106.7 17.604C107.081 17.604 107.456 17.6146 107.826 17.6357V20.523ZM123.619 15.8482H132.81H133.147V15.5111V15.5106V15.5101V15.5095V15.509V15.5085V15.508V15.5075V15.5069V15.5064V15.5059V15.5054V15.5049V15.5043V15.5038V15.5033V15.5028V15.5023V15.5017V15.5012V15.5007V15.5002V15.4997V15.4992V15.4986V15.4981V15.4976V15.4971V15.4966V15.496V15.4955V15.495V15.4945V15.494V15.4934V15.4929V15.4924V15.4919V15.4914V15.4908V15.4903V15.4898V15.4893V15.4888V15.4882V15.4877V15.4872V15.4867V15.4862V15.4856V15.4851V15.4846V15.4841V15.4836V15.483V15.4825V15.482V15.4815V15.481V15.4804V15.4799V15.4794V15.4789V15.4784V15.4778V15.4773V15.4768V15.4763V15.4758V15.4753V15.4747V15.4742V15.4737V15.4732V15.4727V15.4721V15.4716V15.4711V15.4706V15.4701V15.4695V15.469V15.4685V15.468V15.4675V15.4669V15.4664V15.4659V15.4654V15.4649V15.4643V15.4638V15.4633V15.4628V15.4623V15.4617V15.4612V15.4607V15.4602V15.4597V15.4591V15.4586V15.4581V15.4576V15.4571V15.4565V15.456V15.4555V15.455V15.4545V15.4539V15.4534V15.4529V15.4524V15.4519V15.4514V15.4508V15.4503V15.4498V15.4493V15.4488V15.4482V15.4477V15.4472V15.4467V15.4462V15.4456V15.4451V15.4446V15.4441V15.4436V15.443V15.4425V15.442V15.4415V15.441V15.4404V15.4399V15.4394V15.4389V15.4384V15.4378V15.4373V15.4368V15.4363V15.4358V15.4352V15.4347V15.4342V15.4337V15.4332V15.4326V15.4321V15.4316V15.4311V15.4306V15.43V15.4295V15.429V15.4285V15.428V15.4275V15.4269V15.4264V15.4259V15.4254V15.4249V15.4243V15.4238V15.4233V15.4228V15.4223V15.4217V15.4212V15.4207V15.4202V15.4197V15.4191V15.4186V15.4181V15.4176V15.4171V15.4165V15.416V15.4155V15.415V15.4145V15.4139V15.4134V15.4129V15.4124V15.4119V15.4113V15.4108V15.4103V15.4098V15.4093V15.4087V15.4082V15.4077V15.4072V15.4067V15.4061V15.4056V15.4051V15.4046V15.4041V15.4036V15.403V15.4025V15.402V15.4015V15.401V15.4004V15.3999V15.3994V15.3989V15.3984V15.3978V15.3973V15.3968V15.3963V15.3958V15.3952V15.3947V15.3942V15.3937V15.3932V15.3926V15.3921V15.3916V15.3911V15.3906V15.39V15.3895V15.389V15.3885V15.388V15.3874V15.3869V15.3864V15.3859V15.3854V15.3848V15.3843V15.3838V15.3833V15.3828V15.3822V15.3817V15.3812V15.3807V15.3802V15.3797V15.3791V15.3786V15.3781V15.3776V15.3771V15.3765V15.376V15.3755V15.375V15.3745V15.3739V15.3734V15.3729V15.3724V15.3719V15.3713V15.3708V15.3703V15.3698V15.3693V15.3687V15.3682V15.3677V15.3672V15.3667V15.3661V15.3656V15.3651V15.3646V15.3641V15.3635V15.363V15.3625V15.362V15.3615V15.3609V15.3604V15.3599V15.3594V15.3589V15.3583V15.3578V15.3573V15.3568V15.3563V15.3558V15.3552V15.3547V15.3542V15.3537V15.3532V15.3526V15.3521V15.3516V15.3511V15.3506V15.35V15.3495V15.349V15.3485V15.348V15.3474V15.3469V15.3464V15.3459V15.3454V15.3448V15.3443V15.3438V15.3433V15.3428V15.3422V15.3417V15.3412V15.3407V15.3402V15.3396V15.3391V15.3386V15.3381V15.3376V15.337V15.3365V15.336V15.3355V15.335V15.3344V15.3339V15.3334V15.3329V15.3324V15.3319V15.3313V15.3308V15.3303V15.3298V15.3293V15.3287V15.3282V15.3277V15.3272V15.3267V15.3261V15.3256V15.3251V15.3246V15.3241V15.3235V15.323V15.3225V15.322V15.3215V15.3209V15.3204V15.3199V15.3194V15.3189V15.3183V15.3178V15.3173V15.3168V15.3163V15.3157V15.3152V15.3147V15.3142V15.3137V15.3131V15.3126V15.3121V15.3116V15.3111V15.3106V15.31V15.3095V15.309V15.3085V15.308V15.3074V15.3069V15.3064V15.3059V15.3054V15.3048V15.3043V15.3038V15.3033V15.3028V15.3022V15.3017V15.3012V15.3007V15.3002V15.2996V15.2991V15.2986V15.2981V15.2976V15.297V15.2965V15.296V15.2955V15.295V15.2944V15.2939V15.2934V15.2929V15.2924V15.2918V15.2913V15.2908V15.2903V15.2898V15.2892V15.2887V15.2882V15.2877V15.2872V15.2867V15.2861V15.2856V15.2851V15.2846V15.2841V15.2835V15.283V15.2825V15.282V15.2815V15.2809V15.2804V15.2799V15.2794V15.2789V15.2783V15.2778V15.2773V15.2768V15.2763V15.2757V15.2752V15.2747V15.2742V15.2737V15.2731V15.2726V15.2721V15.2716V15.2711V15.2705V15.27V15.2695V15.269V15.2685V15.2679V15.2674V15.2669V15.2664V15.2659V15.2653V15.2648V15.2643V15.2638V15.2633V15.2628V15.2622V15.2617V15.2612V15.2607V15.2602V15.2596V15.2591V15.2586V15.2581V15.2576V15.257V15.2565V15.256V15.2555V15.255V15.2544V15.2539V15.2534V15.2529V15.2524V15.2518V15.2513V15.2508V15.2503V15.2498V15.2492V15.2487V15.2482V15.2477V15.2472V15.2466V15.2461V15.2456V15.2451C133.147 13.4755 132.628 12.0846 131.542 11.1341C130.481 10.2057 129.176 9.74724 127.649 9.74724C125.755 9.74724 124.175 10.3918 122.936 11.6868C121.689 12.9908 121.087 14.8047 121.087 17.0806C121.087 19.3488 121.659 21.0948 122.868 22.246C124.057 23.3787 125.59 23.9351 127.436 23.9351C129.262 23.9351 130.909 23.6549 132.373 23.0877L132.699 22.9615L132.561 22.6405L132.481 22.4543L132.353 22.1559L132.05 22.2724C130.712 22.787 129.176 23.048 127.436 23.048C126.286 23.048 125.365 22.5861 124.647 21.64C123.949 20.6981 123.57 19.1729 123.57 17.0008C123.57 16.6051 123.587 16.221 123.619 15.8482ZM129.751 11.7287C130.283 12.4084 130.6 13.4694 130.656 14.9611H123.733C123.964 13.6325 124.42 12.6036 125.081 11.8516C125.827 11.0227 126.645 10.6343 127.543 10.6343C128.447 10.6343 129.175 10.9922 129.751 11.7287Z" fill="#110B08" stroke="#110B08" stroke-width="0.674298"/>
<path d="M135.265 3.26085V3.96363H134.466V6.10178H133.707V3.96363H132.908V3.26085H135.265Z" fill="#110B08"/>
<path d="M138.379 3.21826V6.11456H137.621V4.709L137.065 5.36919H136.838L136.282 4.709V6.11456H135.524V3.21826H135.791L136.951 4.45345L138.111 3.21826H138.379Z" fill="#110B08"/>
<path fill-rule="evenodd" clip-rule="evenodd" d="M13.0276 18.8629L13.016 27.9977L14.9469 28.0001L14.9585 18.8249L18.4802 27.297L20.2631 26.5559L16.7647 18.1396L23.202 24.5932L24.569 23.2297L18.1052 16.7494L26.5585 20.2576L27.2987 18.4743L18.8435 14.9653H27.9976V13.0344H18.8655L27.3058 9.54858L26.5687 7.76392L18.1677 11.2335L24.6279 4.83939L23.2696 3.46706L16.7252 9.94452L20.252 1.43851L18.4683 0.698994L14.9708 9.13466L14.9823 0.00256913L13.0515 0.00012207L13.0399 9.17881L9.5166 0.702918L7.73364 1.44406L11.231 9.85779L4.79688 3.40726L3.42981 4.77086L9.89332 11.2508L1.4396 7.74237L0.699467 9.52575L9.15373 13.0344H0L0 14.9653H9.13209L0.69124 18.4513L1.4283 20.236L9.83548 16.7638L3.37087 23.1623L4.72916 24.5347L11.2699 18.0609L7.74528 26.5617L9.52891 27.3012L13.0276 18.8629Z" fill="#110B08"/>
</svg>
