<svg width="124" height="28" viewBox="0 0 124 28" fill="none" xmlns="http://www.w3.org/2000/svg">
<path d="M54.1355 4.18104C54.5643 4.63131 55.2182 4.85644 56.0973 4.85644C56.9764 4.85644 57.6197 4.63131 58.027 4.18104C58.4344 3.70934 58.6381 3.13042 58.6381 2.4443C58.6381 1.7153 58.4344 1.12567 58.027 0.675399C57.6197 0.225133 56.9764 0 56.0973 0C55.2182 0 54.5643 0.225133 54.1355 0.675399C53.7281 1.12567 53.5244 1.7153 53.5244 2.4443C53.5244 3.13042 53.7281 3.70934 54.1355 4.18104Z" fill="#110B08"/>
<path d="M33.7188 6.94696L39.1863 24.4109H46.3584L51.0862 6.94696H46.7765L43.2191 20.7444H42.4597L38.3179 6.94696H33.7188Z" fill="#110B08"/>
<path d="M68.8076 24.9576C66.4061 24.9576 64.5193 24.4537 63.1471 23.446C61.7963 22.4168 61.0887 21.0017 61.0244 19.2006H65.0446C65.1089 19.801 65.4413 20.3477 66.0416 20.8409C66.642 21.334 67.5854 21.5806 68.8719 21.5806C69.9439 21.5806 70.7909 21.3876 71.4127 21.0017C72.0559 20.6158 72.3775 20.0904 72.3775 19.4258C72.3775 18.8469 72.1309 18.3859 71.6378 18.0428C71.1661 17.6997 70.3513 17.4746 69.1935 17.3674L67.6497 17.2066C65.6986 16.9922 64.1977 16.4347 63.1471 15.5342C62.0964 14.6336 61.5711 13.4329 61.5711 11.9321C61.5711 10.7313 61.8713 9.7236 62.4717 8.90884C63.072 8.09407 63.8975 7.48299 64.9481 7.07561C66.0202 6.64678 67.2423 6.43237 68.6146 6.43237C70.7587 6.43237 72.4954 6.90408 73.8248 7.84749C75.1542 8.79091 75.851 10.1739 75.9153 11.9964H71.8951C71.8522 11.396 71.552 10.8814 70.9946 10.4526C70.4371 10.0238 69.633 9.80937 68.5824 9.80937C67.639 9.80937 66.91 9.99162 66.3954 10.3561C65.8808 10.7206 65.6235 11.1923 65.6235 11.7712C65.6235 12.3287 65.8272 12.7575 66.2346 13.0577C66.6634 13.3579 67.3495 13.5616 68.293 13.6688L69.8367 13.8296C71.8951 14.044 73.5032 14.6122 74.661 15.5342C75.8403 16.4562 76.4299 17.6997 76.4299 19.265C76.4299 20.4228 76.1083 21.4305 75.4651 22.2882C74.8433 23.1244 73.9642 23.7783 72.8278 24.25C71.6914 24.7218 70.3513 24.9576 68.8076 24.9576Z" fill="#110B08"/>
<path d="M79.0295 4.18104C79.4583 4.63131 80.1123 4.85644 80.9914 4.85644C81.8705 4.85644 82.5137 4.63131 82.9211 4.18104C83.3285 3.70934 83.5322 3.13042 83.5322 2.4443C83.5322 1.7153 83.3285 1.12567 82.9211 0.675399C82.5137 0.225133 81.8705 0 80.9914 0C80.1123 0 79.4583 0.225133 79.0295 0.675399C78.6221 1.12567 78.4184 1.7153 78.4184 2.4443C78.4184 3.13042 78.6221 3.70934 79.0295 4.18104Z" fill="#110B08"/>
<path fill-rule="evenodd" clip-rule="evenodd" d="M95.7599 25.0219C94.2162 25.0219 92.8547 24.7754 91.6754 24.2822C90.4961 23.7891 89.4991 23.1244 88.6843 22.2882C87.8696 21.4305 87.2478 20.4657 86.8189 19.3936C86.4116 18.3215 86.2079 17.2066 86.2079 16.0488V15.3734C86.2079 14.1727 86.4223 13.0363 86.8511 11.9642C87.3014 10.8707 87.9339 9.90585 88.7487 9.06964C89.5849 8.212 90.5926 7.54732 91.7719 7.07561C92.9511 6.58246 94.2805 6.33589 95.7599 6.33589C97.2394 6.33589 98.5687 6.58246 99.748 7.07561C100.927 7.54732 101.924 8.212 102.739 9.06964C103.575 9.90585 104.208 10.8707 104.637 11.9642C105.065 13.0363 105.28 14.1727 105.28 15.3734V16.0488C105.28 17.2066 105.065 18.3215 104.637 19.3936C104.229 20.4657 103.618 21.4305 102.803 22.2882C101.989 23.1244 100.992 23.7891 99.8123 24.2822C98.6331 24.7754 97.2823 25.0219 95.7599 25.0219ZM95.7599 21.1947C96.8535 21.1947 97.7754 20.9588 98.5259 20.4871C99.2763 19.994 99.8445 19.34 100.23 18.5252C100.616 17.689 100.809 16.7456 100.809 15.695C100.809 14.6229 100.606 13.6795 100.198 12.8647C99.8123 12.0285 99.2334 11.3746 98.4615 10.9029C97.7111 10.4097 96.8106 10.1631 95.7599 10.1631C94.7093 10.1631 93.7981 10.4097 93.0262 10.9029C92.2757 11.3746 91.6968 12.0285 91.2894 12.8647C90.8821 13.6795 90.6784 14.6229 90.6784 15.695C90.6784 16.7456 90.8713 17.689 91.2573 18.5252C91.6647 19.34 92.2436 19.994 92.994 20.4871C93.7445 20.9588 94.6664 21.1947 95.7599 21.1947Z" fill="#110B08"/>
<path d="M111.51 10.0023C111.356 10.3865 111.228 10.8026 111.124 11.2505V6.94696H107.586V24.4109H112.057V14.1512C112.057 13.0148 112.389 12.1143 113.054 11.4496C113.74 10.7635 114.63 10.4204 115.723 10.4204C116.795 10.4204 117.631 10.7528 118.232 11.4175C118.854 12.0821 119.164 12.9505 119.164 14.0226V24.4109H123.635V14.4085C123.635 11.7498 123.099 9.75576 122.027 8.42641C120.955 7.07561 119.379 6.40021 117.299 6.40021H117.106C115.712 6.40021 114.544 6.70039 113.6 7.30074C112.679 7.9011 111.982 8.80163 111.51 10.0023Z" fill="#110B08"/>
<path d="M54.4571 10.2918V24.4109H58.9276V6.94696H52.0128V10.2918H54.4571Z" fill="#110B08"/>
<path d="M79.3511 10.2918V24.4109H83.8216V6.94696H76.9068V10.2918H79.3511Z" fill="#110B08"/>
<mask id="path-2-inside-1_301_383" fill="white">
<path fill-rule="evenodd" clip-rule="evenodd" d="M14.3838 28C22.1158 28 28.3838 21.732 28.3838 14C28.3838 6.26801 22.1158 0 14.3838 0C6.6518 0 0.383789 6.26801 0.383789 14C0.383789 21.732 6.6518 28 14.3838 28ZM24.6867 12.5468C23.3813 14.0733 21.5425 15.024 19.5053 15.024C15.545 15.024 12.3346 11.4314 12.3346 6.99962C12.3346 5.88465 12.5378 4.8228 12.905 3.85791C7.94242 4.61163 4.13965 8.8965 4.13965 14.0696C4.13965 15.5789 4.46338 17.0126 5.0452 18.3051C5.6354 17.756 6.46488 17.4143 7.38355 17.4143C9.17511 17.4143 10.6275 18.7138 10.6275 20.3168C10.6275 21.3932 9.9726 22.3327 8.99991 22.8338C10.5859 23.8256 12.4605 24.3988 14.4689 24.3988C20.1736 24.3988 24.7982 19.7743 24.7982 14.0696C24.7982 13.5522 24.7602 13.0437 24.6867 12.5468Z"/>
</mask>
<path fill-rule="evenodd" clip-rule="evenodd" d="M14.3838 28C22.1158 28 28.3838 21.732 28.3838 14C28.3838 6.26801 22.1158 0 14.3838 0C6.6518 0 0.383789 6.26801 0.383789 14C0.383789 21.732 6.6518 28 14.3838 28ZM24.6867 12.5468C23.3813 14.0733 21.5425 15.024 19.5053 15.024C15.545 15.024 12.3346 11.4314 12.3346 6.99962C12.3346 5.88465 12.5378 4.8228 12.905 3.85791C7.94242 4.61163 4.13965 8.8965 4.13965 14.0696C4.13965 15.5789 4.46338 17.0126 5.0452 18.3051C5.6354 17.756 6.46488 17.4143 7.38355 17.4143C9.17511 17.4143 10.6275 18.7138 10.6275 20.3168C10.6275 21.3932 9.9726 22.3327 8.99991 22.8338C10.5859 23.8256 12.4605 24.3988 14.4689 24.3988C20.1736 24.3988 24.7982 19.7743 24.7982 14.0696C24.7982 13.5522 24.7602 13.0437 24.6867 12.5468Z" fill="#110B08"/>
<path d="M24.6867 12.5468L27.3316 12.156L26.4729 6.34446L22.6548 10.8092L24.6867 12.5468ZM12.905 3.85791L15.4037 4.80889L17.0335 0.526673L12.5035 1.21468L12.905 3.85791ZM5.0452 18.3051L2.60727 19.4026L4.13728 22.8014L6.86626 20.2626L5.0452 18.3051ZM8.99991 22.8338L7.77545 20.4572L3.59826 22.6092L7.58239 25.1006L8.99991 22.8338ZM25.7102 14C25.7102 20.2554 20.6392 25.3265 14.3838 25.3265V30.6735C23.5923 30.6735 31.0573 23.2085 31.0573 14H25.7102ZM14.3838 2.67355C20.6392 2.67355 25.7102 7.74457 25.7102 14H31.0573C31.0573 4.79145 23.5923 -2.67355 14.3838 -2.67355V2.67355ZM3.05734 14C3.05734 7.74457 8.12836 2.67355 14.3838 2.67355V-2.67355C5.17524 -2.67355 -2.28976 4.79145 -2.28976 14H3.05734ZM14.3838 25.3265C8.12836 25.3265 3.05734 20.2554 3.05734 14H-2.28976C-2.28976 23.2085 5.17524 30.6735 14.3838 30.6735V25.3265ZM19.5053 17.6976C22.4105 17.6976 24.9643 16.3359 26.7186 14.2844L22.6548 10.8092C21.7983 11.8108 20.6745 12.3505 19.5053 12.3505V17.6976ZM9.66102 6.99962C9.66102 12.6172 13.7936 17.6976 19.5053 17.6976V12.3505C17.2964 12.3505 15.0081 10.2455 15.0081 6.99962H9.66102ZM10.4063 2.90693C9.92371 4.17496 9.66102 5.55903 9.66102 6.99962H15.0081C15.0081 6.21028 15.1518 5.47065 15.4037 4.80889L10.4063 2.90693ZM6.81319 14.0696C6.81319 10.2379 9.6307 7.05942 13.3065 6.50114L12.5035 1.21468C6.25414 2.16384 1.4661 7.55512 1.4661 14.0696H6.81319ZM7.48312 17.2077C7.05356 16.2534 6.81319 15.1932 6.81319 14.0696H1.4661C1.4661 15.9647 1.8732 17.7719 2.60727 19.4026L7.48312 17.2077ZM7.38355 14.7408C5.80313 14.7408 4.31917 15.3289 3.22413 16.3477L6.86626 20.2626C6.95162 20.1831 7.12662 20.0879 7.38355 20.0879V14.7408ZM13.301 20.3168C13.301 16.9654 10.3643 14.7408 7.38355 14.7408V20.0879C7.63367 20.0879 7.80678 20.1783 7.89463 20.2569C7.97778 20.3313 7.95391 20.3565 7.95391 20.3168H13.301ZM10.2244 25.2105C11.9492 24.3219 13.301 22.5403 13.301 20.3168H7.95391C7.95391 20.3128 7.9548 20.3068 7.95609 20.3027C7.95711 20.2994 7.95607 20.3047 7.94739 20.3178C7.92876 20.3461 7.87778 20.4044 7.77545 20.4572L10.2244 25.2105ZM14.4689 21.7253C12.9762 21.7253 11.5908 21.3007 10.4174 20.567L7.58239 25.1006C9.58102 26.3505 11.9447 27.0724 14.4689 27.0724V21.7253ZM22.1246 14.0696C22.1246 18.2977 18.6971 21.7253 14.4689 21.7253V27.0724C21.6502 27.0724 27.4717 21.2508 27.4717 14.0696H22.1246ZM22.0419 12.9376C22.0963 13.3056 22.1246 13.6834 22.1246 14.0696H27.4717C27.4717 13.421 27.424 12.7819 27.3316 12.156L22.0419 12.9376Z" fill="#110B08" mask="url(#path-2-inside-1_301_383)"/>
</svg>
