<svg width="155" height="28" viewBox="0 0 155 28" fill="none" xmlns="http://www.w3.org/2000/svg">
<path d="M49.9344 25.015C47.7174 25.015 45.7578 24.5795 44.0554 23.7086C42.3531 22.8178 41.0368 21.5609 40.1064 19.9377C39.1761 18.3146 38.7109 16.4044 38.7109 14.2072C38.7109 12.01 39.1761 10.0999 40.1064 8.47671C41.0368 6.83377 42.3531 5.57682 44.0554 4.70586C45.7578 3.81511 47.7174 3.36973 49.9344 3.36973C51.4388 3.36973 52.765 3.52809 53.9131 3.8448C55.081 4.14172 56.1499 4.61679 57.1198 5.27V9.5753C56.2488 8.8627 55.2492 8.34804 54.1209 8.03133C53.0124 7.69483 51.7456 7.52657 50.3204 7.52657C48.9942 7.52657 47.7966 7.8037 46.7277 8.35794C45.6786 8.89239 44.8472 9.66438 44.2336 10.6739C43.62 11.6834 43.3132 12.8612 43.3132 14.2072C43.3132 15.573 43.5903 16.7706 44.1445 17.7999C44.7186 18.8094 45.5202 19.5913 46.5495 20.1456C47.5789 20.6998 48.7665 20.9769 50.1126 20.9769C51.3398 20.9769 52.4087 20.7592 53.3193 20.3237V16.3153H49.9641V12.9898H57.6839V22.996C55.7243 24.342 53.1411 25.015 49.9344 25.015Z" fill="#110B08"/>
<path d="M58.7262 10.3176H63.0612V12.3663C63.6352 11.6735 64.4369 11.149 65.4662 10.7927C66.4955 10.4166 67.6634 10.2285 68.9698 10.2285V13.6431C67.604 13.6431 66.3965 13.8509 65.3474 14.2666C64.3181 14.6823 63.6055 15.3157 63.2096 16.1669V24.5696H58.7262V10.3176Z" fill="#110B08"/>
<path d="M77.5857 25.015C74.8541 25.015 72.7064 24.3618 71.1426 23.0553C69.5789 21.7291 68.797 19.8783 68.797 17.503C68.797 15.1474 69.4898 13.2868 70.8754 11.9209C72.2808 10.5551 74.2801 9.87222 76.8731 9.87222C78.5755 9.87222 80.0205 10.1889 81.2081 10.8224C82.3958 11.4558 83.2965 12.3366 83.9101 13.4649C84.5237 14.5734 84.8305 15.8304 84.8305 17.2358V19.047H73.0726C73.3893 20.868 75.0916 21.7786 78.1796 21.7786C79.0901 21.7786 80.0304 21.6994 81.0003 21.5411C81.9702 21.3827 82.8115 21.165 83.5241 20.8878V24.0352C82.8313 24.3321 81.9405 24.5696 80.8518 24.7478C79.7631 24.9259 78.6744 25.015 77.5857 25.015ZM80.5846 16.1372C80.5252 15.187 80.1689 14.4546 79.5157 13.94C78.8625 13.4055 77.9618 13.1383 76.8138 13.1383C75.6855 13.1383 74.7947 13.4055 74.1415 13.94C73.4883 14.4744 73.132 15.2068 73.0726 16.1372H80.5846Z" fill="#110B08"/>
<path d="M94.0206 25.015C91.2889 25.015 89.1412 24.3618 87.5775 23.0553C86.0137 21.7291 85.2318 19.8783 85.2318 17.503C85.2318 15.1474 85.9246 13.2868 87.3102 11.9209C88.7156 10.5551 90.7149 9.87222 93.308 9.87222C95.0103 9.87222 96.4553 10.1889 97.643 10.8224C98.8306 11.4558 99.7313 12.3366 100.345 13.4649C100.959 14.5734 101.265 15.8304 101.265 17.2358V19.047H89.5074C89.8241 20.868 91.5265 21.7786 94.6144 21.7786C95.525 21.7786 96.4652 21.6994 97.4351 21.5411C98.405 21.3827 99.2463 21.165 99.9589 20.8878V24.0352C99.2661 24.3321 98.3754 24.5696 97.2867 24.7478C96.198 24.9259 95.1093 25.015 94.0206 25.015ZM97.0194 16.1372C96.96 15.187 96.6037 14.4546 95.9505 13.94C95.2973 13.4055 94.3967 13.1383 93.2486 13.1383C92.1203 13.1383 91.2295 13.4055 90.5763 13.94C89.9231 14.4744 89.5668 15.2068 89.5074 16.1372H97.0194Z" fill="#110B08"/>
<path d="M102.26 10.3176H106.595V12.0694C107.249 11.337 108.021 10.7927 108.911 10.4364C109.822 10.0603 110.772 9.87222 111.762 9.87222C113.702 9.87222 115.147 10.3968 116.097 11.4459C117.067 12.4752 117.552 13.8707 117.552 15.6324V24.5696H113.068V16.1372C113.068 14.2963 112.217 13.3758 110.515 13.3758C109.763 13.3758 109.06 13.5639 108.407 13.94C107.753 14.2963 107.199 14.8307 106.744 15.5433V24.5696H102.26V10.3176Z" fill="#110B08"/>
<path d="M121.508 8.12041C120.815 8.12041 120.231 7.89277 119.756 7.4375C119.281 6.98223 119.043 6.40819 119.043 5.71538C119.043 5.04237 119.281 4.47822 119.756 4.02295C120.231 3.54788 120.815 3.31035 121.508 3.31035C122.2 3.31035 122.784 3.54788 123.259 4.02295C123.735 4.47822 123.972 5.04237 123.972 5.71538C123.972 6.40819 123.735 6.98223 123.259 7.4375C122.784 7.89277 122.2 8.12041 121.508 8.12041ZM119.251 10.3176H123.764V24.5696H119.251V10.3176Z" fill="#110B08"/>
<path d="M131.411 25.015C130.342 25.015 129.194 24.8962 127.967 24.6587C126.759 24.441 125.809 24.1242 125.116 23.7086V20.2049C125.908 20.68 126.858 21.066 127.967 21.3629C129.075 21.6598 130.104 21.8083 131.054 21.8083C131.866 21.8083 132.46 21.739 132.836 21.6004C133.212 21.4619 133.4 21.2046 133.4 20.8285C133.4 20.5315 133.291 20.294 133.074 20.1159C132.856 19.9179 132.519 19.7497 132.064 19.6111C131.629 19.4527 130.896 19.2251 129.867 18.9282C128.659 18.5719 127.709 18.2156 127.016 17.8593C126.343 17.4832 125.829 17.018 125.472 16.4638C125.136 15.9095 124.968 15.1969 124.968 14.326C124.968 12.8414 125.552 11.7329 126.719 11.0005C127.907 10.2483 129.511 9.87222 131.53 9.87222C132.519 9.87222 133.539 9.98109 134.588 10.1988C135.657 10.3968 136.478 10.664 137.052 11.0005V14.4151C136.478 14.039 135.726 13.7321 134.796 13.4946C133.885 13.2571 132.994 13.1383 132.123 13.1383C131.312 13.1383 130.678 13.2175 130.223 13.3758C129.788 13.5342 129.57 13.8311 129.57 14.2666C129.57 14.6427 129.778 14.9297 130.193 15.1277C130.629 15.3256 131.431 15.573 132.598 15.8699L133.192 16.0184C134.439 16.3549 135.409 16.731 136.102 17.1467C136.795 17.5426 137.28 18.0275 137.557 18.6016C137.854 19.1558 138.002 19.8585 138.002 20.7097C138.002 22.0161 137.438 23.0652 136.31 23.857C135.182 24.629 133.549 25.015 131.411 25.015Z" fill="#110B08"/>
<path d="M139.039 2.62744H143.522V11.9506C144.195 11.2578 144.957 10.7432 145.808 10.4067C146.66 10.0504 147.57 9.87222 148.54 9.87222C150.48 9.87222 151.925 10.3968 152.875 11.4459C153.845 12.4752 154.33 13.8707 154.33 15.6324V24.5696H149.847V16.1372C149.847 14.2963 148.995 13.3758 147.293 13.3758C146.541 13.3758 145.838 13.5639 145.185 13.94C144.532 14.2963 143.977 14.8307 143.522 15.5433V24.5696H139.039V2.62744Z" fill="#110B08"/>
<path fill-rule="evenodd" clip-rule="evenodd" d="M23.3971 6.82887C23.3971 10.6004 20.3397 13.6577 16.5683 13.6577C12.7968 13.6577 9.73938 10.6004 9.73938 6.82887C9.73938 3.05739 12.7968 0 16.5683 0C20.3397 0 23.3971 3.05739 23.3971 6.82887ZM0.6844 13.1607C8.12429 12.6592 14.6084 18.2294 15.2124 25.685C15.2749 26.4576 15.2719 27.2204 15.208 27.9679C7.76814 28.4694 1.28403 22.8991 0.680081 15.4435C0.617497 14.6709 0.62049 13.9081 0.6844 13.1607ZM20.0225 27.7071C27.4781 27.1031 33.0484 20.6191 32.5469 13.1792C31.7994 13.1153 31.0367 13.1123 30.2641 13.1749C22.8085 13.7788 17.2382 20.2629 17.7397 27.7028C18.4872 27.7667 19.25 27.7697 20.0225 27.7071Z" fill="#110B08"/>
</svg>
