<svg width="99" height="28" viewBox="0 0 99 28" fill="none" xmlns="http://www.w3.org/2000/svg">
<path d="M46.7574 16.8962V26.8322H49.9858V16.2505C49.9858 14.9114 49.6988 13.7277 49.1249 12.6994C48.551 11.6711 47.7618 10.87 46.7574 10.2961C45.777 9.72217 44.6411 9.43521 43.3498 9.43521C42.0585 9.43521 40.8987 9.73413 39.8704 10.332C39.0958 10.7643 38.4502 11.3187 37.9334 11.9953V1.22095H34.7051V26.8322H37.9334V16.8962C37.9334 16.0353 38.1247 15.2701 38.5073 14.6005C38.8899 13.9309 39.416 13.4048 40.0856 13.0222C40.7552 12.6396 41.5204 12.4483 42.3813 12.4483C43.6726 12.4483 44.7248 12.8668 45.5379 13.7038C46.3509 14.5407 46.7574 15.6049 46.7574 16.8962Z" fill="#110B08"/>
<path d="M55.6479 26.2583C56.7718 26.88 58.0393 27.1909 59.4501 27.1909C60.885 27.1909 62.1404 26.88 63.2165 26.2583C64.3165 25.6126 65.1774 24.7278 65.7992 23.6039C66.4209 22.48 66.7318 21.1767 66.7318 19.6941V9.79391H63.5035V19.5506C63.5035 20.9615 63.1448 22.0735 62.4274 22.8865C61.71 23.6756 60.7176 24.0702 59.4501 24.0702C58.6132 24.0702 57.8838 23.8909 57.2621 23.5322C56.6403 23.1735 56.1621 22.6593 55.8273 21.9898C55.5164 21.2963 55.3609 20.4832 55.3609 19.5506V9.79391H52.1326V19.6941C52.1326 21.1767 52.4435 22.48 53.0653 23.6039C53.687 24.7278 54.5479 25.6126 55.6479 26.2583Z" fill="#110B08"/>
<path fill-rule="evenodd" clip-rule="evenodd" d="M77.1565 27.1909C75.4587 27.1909 73.9282 26.8083 72.5652 26.0431C71.2021 25.2539 70.126 24.1898 69.3368 22.8506C68.5477 21.5115 68.1531 19.993 68.1531 18.2951C68.1531 16.6212 68.5358 15.1146 69.301 13.7755C70.0901 12.4363 71.1423 11.3842 72.4576 10.6189C73.7967 9.82978 75.2913 9.43521 76.9413 9.43521C78.5196 9.43521 79.9066 9.79391 81.1023 10.5113C82.3218 11.2287 83.2664 12.2211 83.936 13.4885C84.6295 14.7559 84.9762 16.1908 84.9762 17.7929C84.9762 18.0321 84.9643 18.2951 84.9404 18.5821C84.9165 18.8451 84.8686 19.156 84.7969 19.5147H71.4536C71.5672 20.1782 71.7703 20.788 72.063 21.3441C72.5412 22.2289 73.2228 22.9224 74.1076 23.4246C74.9924 23.9028 76.0087 24.142 77.1565 24.142C78.1131 24.142 78.9859 23.9746 79.7751 23.6398C80.5881 23.305 81.2816 22.8028 81.8555 22.1332L83.936 24.2496C83.1229 25.2061 82.1186 25.9355 80.9229 26.4377C79.7511 26.9398 78.4957 27.1909 77.1565 27.1909ZM72.0271 15.1386C71.7591 15.6464 71.5701 16.2084 71.4602 16.8245H81.8298C81.7416 16.1193 81.5589 15.4975 81.2816 14.9592C80.8751 14.1462 80.3012 13.5244 79.5598 13.094C78.8185 12.6396 77.9218 12.4124 76.8696 12.4124C75.7696 12.4124 74.8011 12.6516 73.9641 13.1298C73.1271 13.6081 72.4815 14.2777 72.0271 15.1386Z" fill="#110B08"/>
<path d="M87.0615 25.7561C87.7789 26.2105 88.556 26.5692 89.393 26.8322C90.2539 27.0714 91.1626 27.1909 92.1192 27.1909C94.0322 27.1909 95.5507 26.7246 96.6747 25.792C97.8225 24.8594 98.3964 23.592 98.3964 21.9898C98.3964 20.9376 98.1692 20.0886 97.7149 19.443C97.2845 18.7973 96.7225 18.2832 96.029 17.9006C95.3355 17.5179 94.6061 17.219 93.8409 17.0038C93.0757 16.7647 92.3344 16.5375 91.617 16.3223C90.9235 16.1071 90.3615 15.844 89.9311 15.5331C89.5006 15.2223 89.2854 14.7799 89.2854 14.2059C89.2854 13.632 89.5245 13.1896 90.0028 12.8787C90.505 12.544 91.2224 12.3766 92.155 12.3766C93.0398 12.3766 93.829 12.544 94.5224 12.8787C95.2399 13.2135 95.8377 13.6918 96.316 14.3135L98.3964 12.2331C97.7268 11.3005 96.866 10.607 95.8138 10.1526C94.7855 9.67434 93.6018 9.43521 92.2626 9.43521C90.9952 9.43521 89.9072 9.63847 88.9984 10.045C88.1137 10.4515 87.4202 11.0374 86.918 11.8026C86.4158 12.544 86.1647 13.4287 86.1647 14.457C86.1647 15.4853 86.3799 16.3103 86.8104 16.9321C87.2647 17.5538 87.8386 18.044 88.5321 18.4027C89.2256 18.7614 89.955 19.0604 90.7202 19.2995C91.5094 19.5147 92.2507 19.7419 92.9442 19.981C93.6377 20.1962 94.1996 20.4832 94.6301 20.8419C95.0844 21.1767 95.3116 21.655 95.3116 22.2767C95.3116 22.8985 95.0366 23.3887 94.4866 23.7474C93.9366 24.0822 93.1594 24.2496 92.155 24.2496C91.1507 24.2496 90.2419 24.0702 89.4289 23.7115C88.6158 23.3289 87.8984 22.755 87.2767 21.9898L85.1962 24.0702C85.7223 24.7159 86.3441 25.2778 87.0615 25.7561Z" fill="#110B08"/>
<path d="M95.3752 4.07344V4.70913H94.6099V6.64317H93.8834V4.70913H93.1182V4.07344H95.3752Z" fill="#110B08"/>
<path d="M98.3578 4.03491V6.65473H97.6314V5.38335L97.0992 5.98051H96.8816L96.3494 5.38335V6.65473H95.623V4.03491H95.8794L96.9904 5.15219L98.1014 4.03491H98.3578Z" fill="#110B08"/>
<path d="M3.7457 8.25476C4.75102 11.4782 8.17909 13.2763 11.4025 12.271C14.6259 11.2657 22.2606 6.01731 21.2553 2.79389C20.2499 -0.429536 10.9854 -0.407374 7.76193 0.597945C4.53851 1.60326 2.74038 5.03133 3.7457 8.25476Z" fill="#110B08"/>
<path d="M1.79789 25.9308C3.68988 27.8228 6.75706 27.8228 8.64904 25.9308C10.541 24.0388 13.9664 17.5459 12.0748 15.6539C10.1828 13.7621 3.68988 17.1877 1.79789 19.0795C-0.09409 20.9715 -0.09409 24.0388 1.79789 25.9308Z" fill="#110B08"/>
<path d="M19.902 27.7903C23.1635 28.6642 26.516 26.7287 27.39 23.4672C28.2637 20.2056 27.9108 10.9479 24.6492 10.0738C21.3877 9.2 16.453 17.0409 15.579 20.3025C14.705 23.5639 16.6404 26.9163 19.902 27.7903Z" fill="#110B08"/>
</svg>
