<svg width="72" height="62" viewBox="0 0 72 62" fill="none" xmlns="http://www.w3.org/2000/svg">
<path d="M7.92338 9.07698C8.56063 9.07698 9.07723 8.56039 9.07723 7.92313C9.07723 7.28588 8.56063 6.76929 7.92338 6.76929C7.28613 6.76929 6.76953 7.28588 6.76953 7.92313C6.76953 8.56039 7.28613 9.07698 7.92338 9.07698Z" stroke="#110B08" stroke-width="2" stroke-linecap="round" stroke-linejoin="round"/>
<path d="M15.9996 9.07698C16.6368 9.07698 17.1534 8.56039 17.1534 7.92313C17.1534 7.28588 16.6368 6.76929 15.9996 6.76929C15.3623 6.76929 14.8457 7.28588 14.8457 7.92313C14.8457 8.56039 15.3623 9.07698 15.9996 9.07698Z" stroke="#110B08" stroke-width="2" stroke-linecap="round" stroke-linejoin="round"/>
<path d="M24.0767 9.07698C24.714 9.07698 25.2305 8.56039 25.2305 7.92313C25.2305 7.28588 24.714 6.76929 24.0767 6.76929C23.4394 6.76929 22.9229 7.28588 22.9229 7.92313C22.9229 8.56039 23.4394 9.07698 24.0767 9.07698Z" stroke="#110B08" stroke-width="2" stroke-linecap="round" stroke-linejoin="round"/>
<path d="M61.0001 14.8462V1H1V14.8462M61.0001 14.8462H1M61.0001 14.8462V35.6154M1 14.8462V51.7693H44.8462" stroke="#110B08" stroke-width="2" stroke-linecap="round" stroke-linejoin="round"/>
<path d="M51.7689 54.0769C58.1415 54.0769 63.3074 48.911 63.3074 42.5385C63.3074 36.1659 58.1415 31 51.7689 31C45.3964 31 40.2305 36.1659 40.2305 42.5385C40.2305 48.911 45.3964 54.0769 51.7689 54.0769Z" stroke="#110B08" stroke-width="2" stroke-linecap="round" stroke-linejoin="round"/>
<path d="M60.0771 50.8462L70.231 61" stroke="#110B08" stroke-width="2" stroke-linecap="round" stroke-linejoin="round"/>
</svg>
