<svg width="62" height="62" viewBox="0 0 62 62" fill="none" xmlns="http://www.w3.org/2000/svg">
<path d="M32.8 27H41V34L48.6 27H61V1H23V19" stroke="#110B08" stroke-width="2" stroke-linecap="round" stroke-linejoin="round"/>
<path d="M42 14C42.5523 14 43 13.5523 43 13C43 12.4477 42.5523 12 42 12C41.4477 12 41 12.4477 41 13C41 13.5523 41.4477 14 42 14Z" stroke="#110B08" stroke-width="2" stroke-linecap="round" stroke-linejoin="round"/>
<path d="M34 14C34.5523 14 35 13.5523 35 13C35 12.4477 34.5523 12 34 12C33.4477 12 33 12.4477 33 13C33 13.5523 33.4477 14 34 14Z" stroke="#110B08" stroke-width="2" stroke-linecap="round" stroke-linejoin="round"/>
<path d="M50 14C50.5523 14 51 13.5523 51 13C51 12.4477 50.5523 12 50 12C49.4477 12 49 12.4477 49 13C49 13.5523 49.4477 14 50 14Z" stroke="#110B08" stroke-width="2" stroke-linecap="round" stroke-linejoin="round"/>
<path d="M36.4 53.3C28.2 51.9 29 49.8 29 48.4V45.9C30.3107 44.5713 31.3403 42.9922 32.0275 41.2569C32.7148 39.5217 33.0455 37.6658 33 35.8V29.1C33 21.8 27.7 19 23 19C18.3 19 13 21.8 13 29.1V35.8C12.9618 37.6737 13.3056 39.5355 14.0105 41.272C14.7154 43.0084 15.7666 44.5831 17.1 45.9V48.4C17.1 49.8 17.8 51.9 9.7 53.3C1.6 54.7 1 59 1 61H45C45 59 43.7 54.6 36.4 53.3Z" stroke="#110B08" stroke-width="2" stroke-linecap="round" stroke-linejoin="round"/>
</svg>
