<svg width="91" height="28" viewBox="0 0 91 28" fill="none" xmlns="http://www.w3.org/2000/svg">
<path d="M17.2534 21.5937C17.3928 23.2582 16.8295 24.9711 15.5615 26.2504C14.2934 27.5297 12.5855 28.1081 10.9199 27.9834C10.7805 26.3189 11.3438 24.606 12.6118 23.3267C13.8799 22.0474 15.5877 21.469 17.2534 21.5937Z" fill="#110B08"/>
<path d="M14.2363 19.2806C12.5739 21.0584 10.1724 22.1241 7.55047 22.0044C4.92884 21.8846 2.63468 20.6047 1.14127 18.6832C2.80363 16.9054 5.20516 15.8397 7.82707 15.9595C10.4487 16.0792 12.7429 17.3591 14.2363 19.2806Z" fill="#110B08"/>
<path d="M0.164063 13.5595C0.511321 9.39677 2.61148 5.40649 6.2697 2.77808C9.92778 0.149779 14.3794 -0.567525 18.4352 0.431345C18.0879 4.59404 15.9878 8.58433 12.3296 11.2127C8.67148 13.841 4.21987 14.5583 0.164063 13.5595Z" fill="#110B08"/>
<path d="M67.5968 8.45399V10.9888H69.1177V24.241H71.8215V10.9888H75.3703V8.45399H71.8215V5.86017C71.8215 5.11656 71.8891 4.51954 72.0243 4.06883C72.1595 3.61822 72.3397 3.3028 72.5651 3.12248C72.8129 2.91974 73.1059 2.81837 73.4438 2.81837C73.7142 2.81837 73.9959 2.87471 74.2888 2.98729C74.6042 3.07745 74.8746 3.31401 75.0999 3.69708L76.587 1.46644C76.4293 1.24108 76.204 1.02703 75.9111 0.824292C75.6407 0.621452 75.314 0.452436 74.9309 0.317242C74.5479 0.182049 74.1085 0.114502 73.6128 0.114502C72.6665 0.114502 71.8553 0.317242 71.1793 0.722822C70.5259 1.10589 70.0189 1.69169 69.6584 2.48034C69.2979 3.26898 69.1177 4.28288 69.1177 5.52214V8.45399H67.5968Z" fill="#110B08"/>
<path d="M25.1367 3.28616L25.1367 24.241H37.304V21.5371H28.0095V3.28616H25.1367Z" fill="#110B08"/>
<path fill-rule="evenodd" clip-rule="evenodd" d="M44.5095 24.5789C46.1769 24.5789 47.619 24.2522 48.8357 23.5987C50.075 22.9228 51.1002 21.9313 51.9114 20.6245L49.7144 19.2388C49.1511 20.1851 48.464 20.8949 47.6528 21.3681C46.8417 21.8187 45.9065 22.044 44.8476 22.044C43.7885 22.044 42.8872 21.8187 42.1437 21.3681C41.4002 20.9174 40.8368 20.264 40.4538 19.4078C40.1627 18.7571 39.9822 18.0023 39.9124 17.1433H52.1479V16.8391C52.1704 16.6589 52.1817 16.4899 52.1817 16.3322C52.1817 14.6873 51.8887 13.2679 51.3029 12.0736C50.7171 10.8794 49.8721 9.96688 48.7681 9.33594C47.6865 8.68259 46.3797 8.35587 44.8476 8.35587C43.3154 8.35587 41.9635 8.6938 40.7918 9.36977C39.6427 10.0457 38.7414 10.9921 38.0879 12.2088C37.4571 13.4256 37.1417 14.845 37.1417 16.4674C37.1417 18.0672 37.4458 19.4753 38.0542 20.6921C38.685 21.9088 39.5525 22.8665 40.6566 23.565C41.7832 24.241 43.0675 24.5789 44.5095 24.5789ZM40.4876 13.2904C40.2716 13.7477 40.113 14.266 40.0117 14.845H49.2262C49.1743 14.1046 48.9877 13.4513 48.6667 12.8848C48.3062 12.2088 47.7992 11.6794 47.1458 11.2963C46.4924 10.9132 45.7263 10.7217 44.8476 10.7217C43.8111 10.7217 42.921 10.9471 42.1775 11.3977C41.4564 11.8258 40.8931 12.4567 40.4876 13.2904Z" fill="#110B08"/>
<path fill-rule="evenodd" clip-rule="evenodd" d="M63.1879 15.7169C62.763 15.4382 62.2223 15.1927 61.5656 14.9802C60.8221 14.7099 59.8871 14.5747 58.7604 14.5747C56.8452 14.5747 55.3468 15.0366 54.2653 15.9604C53.2063 16.8616 52.6768 18.0672 52.6768 19.5768C52.6768 20.6357 52.9247 21.5371 53.4203 22.2806C53.916 23.0242 54.5695 23.5987 55.3807 24.0043C56.2143 24.3874 57.1043 24.5789 58.0507 24.5789C58.9069 24.5789 59.7631 24.4212 60.6193 24.1058C61.4981 23.7903 62.2304 23.3058 62.8162 22.6525C62.9562 22.502 63.0801 22.3426 63.1879 22.1743V24.241H65.8918V13.0875C65.8918 12.0736 65.6326 11.2174 65.1145 10.519C64.6187 9.82048 63.9089 9.29091 62.9852 8.93046C62.0839 8.5474 61.0249 8.35587 59.8081 8.35587C58.3661 8.35587 57.1269 8.56991 56.0903 8.99801C55.0764 9.4261 54.2766 9.8542 53.6907 10.2823L55.0088 12.2764C55.2567 12.0961 55.5947 11.8821 56.0228 11.6342C56.4509 11.3864 56.9692 11.1723 57.5775 10.9921C58.2084 10.8119 58.9069 10.7217 59.673 10.7217C60.1461 10.7217 60.5968 10.7667 61.0249 10.8569C61.4529 10.9471 61.8248 11.0935 62.1402 11.2963C62.4782 11.499 62.7373 11.7807 62.9176 12.1412C63.0978 12.4792 63.1879 12.9186 63.1879 13.4594V15.7169ZM55.82 17.9883C55.5496 18.3939 55.4144 18.8783 55.4144 19.4416C55.4144 20.0274 55.5496 20.5344 55.82 20.9625C56.113 21.3906 56.5072 21.7173 57.003 21.9427C57.5211 22.1454 58.107 22.2469 58.7604 22.2469C59.5941 22.2469 60.3377 22.0778 60.9911 21.7398C61.6671 21.4019 62.1966 20.9286 62.5796 20.3203C62.9852 19.6894 63.1879 18.9684 63.1879 18.1572V17.5725C62.755 17.3618 62.3157 17.1962 61.8698 17.0757C61.0362 16.8279 60.1461 16.7039 59.1998 16.7039C58.3211 16.7039 57.6 16.8166 57.0367 17.042C56.4959 17.2672 56.0903 17.5827 55.82 17.9883Z" fill="#110B08"/>
<path fill-rule="evenodd" clip-rule="evenodd" d="M87.1027 23.5987C85.8859 24.2522 84.4439 24.5789 82.7765 24.5789C81.3345 24.5789 80.0501 24.241 78.9235 23.565C77.8195 22.8665 76.952 21.9088 76.3211 20.6921C75.7127 19.4753 75.4086 18.0672 75.4086 16.4674C75.4086 14.845 75.724 13.4256 76.3549 12.2088C77.0083 10.9921 77.9096 10.0457 79.0587 9.36977C80.2304 8.6938 81.5824 8.35587 83.1145 8.35587C84.6467 8.35587 85.9535 8.68259 87.035 9.33594C88.1391 9.96688 88.9841 10.8794 89.5699 12.0736C90.1558 13.2679 90.4487 14.6873 90.4487 16.3322C90.4487 16.4899 90.4374 16.6589 90.4149 16.8391V17.1433H78.1793C78.2492 18.0023 78.4297 18.7571 78.7208 19.4078C79.1039 20.264 79.6672 20.9174 80.4107 21.3681C81.1542 21.8187 82.0555 22.044 83.1145 22.044C84.1735 22.044 85.1086 21.8187 85.9198 21.3681C86.7309 20.8949 87.4181 20.1851 87.9814 19.2388L90.1783 20.6245C89.3671 21.9313 88.3419 22.9228 87.1027 23.5987ZM78.2786 14.845C78.38 14.266 78.5387 13.7477 78.7546 13.2904C79.1601 12.4567 79.7235 11.8258 80.4445 11.3977C81.188 10.9471 82.078 10.7217 83.1145 10.7217C83.9932 10.7217 84.7594 10.9132 85.4127 11.2963C86.0662 11.6794 86.5731 12.2088 86.9337 12.8848C87.2546 13.4513 87.4412 14.1046 87.4932 14.845H78.2786Z" fill="#110B08"/>
</svg>
