<svg width="125" height="36" viewBox="0 0 125 36" fill="none" xmlns="http://www.w3.org/2000/svg">
<path d="M39.972 29.312C38.5853 29.312 37.3027 29.0607 36.124 28.558C34.9627 28.0553 33.94 27.3533 33.056 26.452C32.1893 25.5507 31.5133 24.4933 31.028 23.28C30.5427 22.0667 30.3 20.7407 30.3 19.302C30.3 17.8633 30.534 16.5373 31.002 15.324C31.4873 14.0933 32.1633 13.036 33.03 12.152C33.914 11.2507 34.9453 10.5573 36.124 10.072C37.3027 9.56933 38.5853 9.318 39.972 9.318C41.3587 9.318 42.598 9.552 43.69 10.02C44.7993 10.488 45.7353 11.112 46.498 11.892C47.2607 12.6547 47.8067 13.4953 48.136 14.414L44.964 15.896C44.6 14.9253 43.9847 14.128 43.118 13.504C42.2513 12.8627 41.2027 12.542 39.972 12.542C38.7587 12.542 37.684 12.828 36.748 13.4C35.8293 13.972 35.11 14.7607 34.59 15.766C34.0873 16.7713 33.836 17.95 33.836 19.302C33.836 20.654 34.0873 21.8413 34.59 22.864C35.11 23.8693 35.8293 24.658 36.748 25.23C37.684 25.802 38.7587 26.088 39.972 26.088C41.2027 26.088 42.2513 25.776 43.118 25.152C43.9847 24.5107 44.6 23.7047 44.964 22.734L48.136 24.216C47.8067 25.1347 47.2607 25.984 46.498 26.764C45.7353 27.5267 44.7993 28.142 43.69 28.61C42.598 29.078 41.3587 29.312 39.972 29.312ZM54.7569 29.312C53.7689 29.312 52.9109 29.1473 52.1829 28.818C51.4549 28.4887 50.8915 28.0207 50.4929 27.414C50.0942 26.79 49.8949 26.0707 49.8949 25.256C49.8949 24.476 50.0682 23.7827 50.4149 23.176C50.7615 22.552 51.2989 22.032 52.0269 21.616C52.7549 21.2 53.6735 20.9053 54.7829 20.732L59.4109 19.978V22.578L55.4329 23.254C54.7569 23.3753 54.2542 23.592 53.9249 23.904C53.5955 24.216 53.4309 24.6233 53.4309 25.126C53.4309 25.6113 53.6129 26.0013 53.9769 26.296C54.3582 26.5733 54.8262 26.712 55.3809 26.712C56.0915 26.712 56.7155 26.5647 57.2529 26.27C57.8075 25.958 58.2322 25.5333 58.5269 24.996C58.8389 24.4587 58.9949 23.8693 58.9949 23.228V19.588C58.9949 18.9813 58.7522 18.4787 58.2669 18.08C57.7989 17.664 57.1749 17.456 56.3949 17.456C55.6669 17.456 55.0169 17.6553 54.4449 18.054C53.8902 18.4353 53.4829 18.9467 53.2229 19.588L50.4409 18.236C50.7182 17.4907 51.1515 16.8493 51.7409 16.312C52.3475 15.7573 53.0582 15.324 53.8729 15.012C54.6875 14.7 55.5715 14.544 56.5249 14.544C57.6862 14.544 58.7089 14.7607 59.5929 15.194C60.4769 15.61 61.1615 16.1993 61.6469 16.962C62.1495 17.7073 62.4009 18.5827 62.4009 19.588V29H59.1769V26.582L59.9049 26.53C59.5409 27.1367 59.1075 27.648 58.6049 28.064C58.1022 28.4627 57.5302 28.7747 56.8889 29C56.2475 29.208 55.5369 29.312 54.7569 29.312ZM65.5489 29V14.856H68.7469V18.002L68.4869 17.534C68.8162 16.4767 69.3276 15.74 70.0209 15.324C70.7316 14.908 71.5809 14.7 72.5689 14.7H73.4009V17.716H72.1789C71.2082 17.716 70.4282 18.0193 69.8389 18.626C69.2496 19.2153 68.9549 20.0473 68.9549 21.122V29H65.5489ZM81.9815 29.312C80.5255 29.312 79.2515 28.9827 78.1595 28.324C77.0675 27.6653 76.2182 26.7727 75.6115 25.646C75.0048 24.5193 74.7015 23.2713 74.7015 21.902C74.7015 20.4807 75.0048 19.224 75.6115 18.132C76.2355 17.0227 77.0762 16.1473 78.1335 15.506C79.2082 14.8647 80.4042 14.544 81.7215 14.544C82.8308 14.544 83.8015 14.726 84.6335 15.09C85.4828 15.454 86.2022 15.9567 86.7915 16.598C87.3808 17.2393 87.8315 17.976 88.1435 18.808C88.4555 19.6227 88.6115 20.5067 88.6115 21.46C88.6115 21.7027 88.5942 21.954 88.5595 22.214C88.5422 22.474 88.4988 22.6993 88.4295 22.89H77.5095V20.29H86.5055L84.8935 21.512C85.0495 20.7147 85.0062 20.004 84.7635 19.38C84.5382 18.756 84.1568 18.262 83.6195 17.898C83.0995 17.534 82.4668 17.352 81.7215 17.352C81.0108 17.352 80.3782 17.534 79.8235 17.898C79.2688 18.2447 78.8442 18.7647 78.5495 19.458C78.2722 20.134 78.1682 20.9573 78.2375 21.928C78.1682 22.7947 78.2808 23.566 78.5755 24.242C78.8875 24.9007 79.3382 25.412 79.9275 25.776C80.5342 26.14 81.2275 26.322 82.0075 26.322C82.7875 26.322 83.4462 26.1573 83.9835 25.828C84.5382 25.4987 84.9715 25.0567 85.2835 24.502L88.0395 25.854C87.7622 26.53 87.3288 27.128 86.7395 27.648C86.1502 28.168 85.4482 28.5753 84.6335 28.87C83.8362 29.1647 82.9522 29.312 81.9815 29.312ZM97.9014 29.312C96.4454 29.312 95.1714 28.9827 94.0794 28.324C92.9874 27.6653 92.1381 26.7727 91.5314 25.646C90.9248 24.5193 90.6214 23.2713 90.6214 21.902C90.6214 20.4807 90.9248 19.224 91.5314 18.132C92.1554 17.0227 92.9961 16.1473 94.0534 15.506C95.1281 14.8647 96.3241 14.544 97.6414 14.544C98.7508 14.544 99.7214 14.726 100.553 15.09C101.403 15.454 102.122 15.9567 102.711 16.598C103.301 17.2393 103.751 17.976 104.063 18.808C104.375 19.6227 104.531 20.5067 104.531 21.46C104.531 21.7027 104.514 21.954 104.479 22.214C104.462 22.474 104.419 22.6993 104.349 22.89H93.4294V20.29H102.425L100.813 21.512C100.969 20.7147 100.926 20.004 100.683 19.38C100.458 18.756 100.077 18.262 99.5394 17.898C99.0194 17.534 98.3868 17.352 97.6414 17.352C96.9308 17.352 96.2981 17.534 95.7434 17.898C95.1888 18.2447 94.7641 18.7647 94.4694 19.458C94.1921 20.134 94.0881 20.9573 94.1574 21.928C94.0881 22.7947 94.2008 23.566 94.4954 24.242C94.8074 24.9007 95.2581 25.412 95.8474 25.776C96.4541 26.14 97.1474 26.322 97.9274 26.322C98.7074 26.322 99.3661 26.1573 99.9034 25.828C100.458 25.4987 100.891 25.0567 101.203 24.502L103.959 25.854C103.682 26.53 103.249 27.128 102.659 27.648C102.07 28.168 101.368 28.5753 100.553 28.87C99.7561 29.1647 98.8721 29.312 97.9014 29.312ZM107.113 29V14.856H110.311V18.002L110.051 17.534C110.381 16.4767 110.892 15.74 111.585 15.324C112.296 14.908 113.145 14.7 114.133 14.7H114.965V17.716H113.743C112.773 17.716 111.993 18.0193 111.403 18.626C110.814 19.2153 110.519 20.0473 110.519 21.122V29H107.113ZM117.409 29V25.36H120.841V29H117.409Z" fill="#110B08"/>
<path d="M16.7131 11.0283C16.8006 9.92722 15.9732 8.9447 14.8744 9.0577C13.3231 9.21725 11.8154 9.70574 10.4553 10.4995C8.51618 11.6311 6.96977 13.3291 6.02378 15.3653C5.07779 17.4014 4.77752 19.6783 5.16332 21.8901C5.54911 24.1019 6.60249 26.1427 8.18196 27.7384C9.76144 29.3341 11.7914 30.4082 13.9991 30.8165C16.2069 31.2249 18.4867 30.9479 20.5324 30.0227C22.5782 29.0975 24.2918 27.5685 25.4432 25.641C26.2507 24.2891 26.7546 22.7865 26.93 21.2368C27.0542 20.1393 26.0801 19.3019 24.9782 19.3782L24.0654 19.4414C22.9635 19.5177 22.1644 20.494 21.881 21.5616C21.7364 22.1062 21.516 22.6312 21.2237 23.1205C20.5868 24.1868 19.6388 25.0326 18.5072 25.5444C17.3755 26.0562 16.1143 26.2095 14.893 25.9836C13.6717 25.7577 12.5488 25.1635 11.675 24.2808C10.8013 23.3981 10.2186 22.2691 10.0052 21.0456C9.79175 19.8221 9.95785 18.5625 10.4812 17.4361C11.0045 16.3097 11.8599 15.3705 12.9326 14.7444C13.4249 14.4572 13.9521 14.2422 14.4982 14.1031C15.5686 13.8306 16.553 13.0415 16.6405 11.9404L16.7131 11.0283Z" fill="#FF9966"/>
</svg>
