<svg width="103" height="28" viewBox="0 0 103 28" fill="none" xmlns="http://www.w3.org/2000/svg">
<path d="M12.8195 28H3.70839L12.8195 14.2222H21.9307L12.8195 28Z" fill="#110B08"/>
<path d="M9.4857 0L18.8191 0L9.4857 14.2223H0.152344L9.4857 0Z" fill="#110B08"/>
<path d="M40.5177 11.9862C40.5177 12.8312 40.3141 13.6233 39.9067 14.3626C39.5144 15.1019 38.8882 15.6979 38.0282 16.1505C37.1833 16.6032 36.112 16.8295 34.8145 16.8295H32.1665V22.8949H28.998V7.09772H34.8145C36.0366 7.09772 37.0777 7.30895 37.9377 7.73142C38.7977 8.15388 39.439 8.73477 39.8614 9.47408C40.299 10.2134 40.5177 11.0508 40.5177 11.9862ZM34.6787 14.2721C35.5538 14.2721 36.2026 14.0759 36.625 13.6836C37.0475 13.2763 37.2587 12.7105 37.2587 11.9862C37.2587 10.4473 36.3987 9.67777 34.6787 9.67777H32.1665V14.2721H34.6787Z" fill="#110B08"/>
<path d="M45.0305 12.3031C45.4379 11.6392 45.966 11.1187 46.6148 10.7415C47.2786 10.3643 48.033 10.1757 48.878 10.1757V13.5026H48.0406C47.0448 13.5026 46.2904 13.7364 45.7774 14.2042C45.2795 14.6719 45.0305 15.4867 45.0305 16.6484V22.8949H41.8621V10.3567H45.0305V12.3031Z" fill="#110B08"/>
<path d="M55.6743 23.0986C54.4673 23.0986 53.3809 22.8345 52.4153 22.3064C51.4497 21.7633 50.6877 21.0013 50.1295 20.0206C49.5863 19.0399 49.3147 17.9083 49.3147 16.6258C49.3147 15.3433 49.5938 14.2117 50.1521 13.231C50.7254 12.2503 51.5025 11.4959 52.4832 10.9678C53.4639 10.4246 54.5578 10.153 55.7648 10.153C56.9719 10.153 58.0658 10.4246 59.0465 10.9678C60.0272 11.4959 60.7967 12.2503 61.3549 13.231C61.9283 14.2117 62.215 15.3433 62.215 16.6258C62.215 17.9083 61.9207 19.0399 61.3323 20.0206C60.759 21.0013 59.9744 21.7633 58.9786 22.3064C57.9979 22.8345 56.8964 23.0986 55.6743 23.0986ZM55.6743 20.3375C56.2476 20.3375 56.7833 20.2017 57.2812 19.9301C57.7942 19.6434 58.2015 19.2209 58.5033 18.6627C58.8051 18.1044 58.9559 17.4255 58.9559 16.6258C58.9559 15.4338 58.6391 14.521 58.0054 13.8873C57.3868 13.2385 56.6248 12.9142 55.7196 12.9142C54.8143 12.9142 54.0523 13.2385 53.4337 13.8873C52.8302 14.521 52.5285 15.4338 52.5285 16.6258C52.5285 17.8178 52.8227 18.7381 53.4111 19.3869C54.0146 20.0206 54.769 20.3375 55.6743 20.3375Z" fill="#110B08"/>
<path d="M66.8024 20.3827H70.2049V22.8949H63.6339V5.15137H66.8024V20.3827Z" fill="#110B08"/>
<path d="M72.6628 8.86302C72.1046 8.86302 71.6368 8.68951 71.2596 8.34248C70.8975 7.98037 70.7165 7.53527 70.7165 7.00719C70.7165 6.47911 70.8975 6.04156 71.2596 5.69454C71.6368 5.33242 72.1046 5.15137 72.6628 5.15137C73.2211 5.15137 73.6813 5.33242 74.0434 5.69454C74.4206 6.04156 74.6092 6.47911 74.6092 7.00719C74.6092 7.53527 74.4206 7.98037 74.0434 8.34248C73.6813 8.68951 73.2211 8.86302 72.6628 8.86302ZM74.2244 10.3567V22.8949H71.0559V10.3567H74.2244Z" fill="#110B08"/>
<path d="M83.3976 10.1757C84.8914 10.1757 86.0984 10.6509 87.0188 11.6015C87.9391 12.5369 88.3993 13.8496 88.3993 15.5395V22.8949H85.2308V15.9695C85.2308 14.9737 84.9819 14.2117 84.484 13.6836C83.9861 13.1405 83.3071 12.8689 82.4471 12.8689C81.572 12.8689 80.8779 13.1405 80.365 13.6836C79.8671 14.2117 79.6181 14.9737 79.6181 15.9695V22.8949H76.4496V10.3567H79.6181V11.9183C80.0406 11.3752 80.5762 10.9527 81.225 10.6509C81.8888 10.3341 82.6131 10.1757 83.3976 10.1757Z" fill="#110B08"/>
<path d="M102.163 16.3542C102.163 16.8069 102.132 17.2142 102.072 17.5763H92.9061C92.9815 18.4816 93.2984 19.1908 93.8566 19.7038C94.4149 20.2167 95.1014 20.4732 95.9162 20.4732C97.093 20.4732 97.9304 19.9678 98.4283 18.9569H101.846C101.484 20.1639 100.79 21.1597 99.7636 21.9443C98.7376 22.7138 97.4778 23.0986 95.9841 23.0986C94.777 23.0986 93.6907 22.8345 92.725 22.3064C91.7745 21.7633 91.0276 21.0013 90.4845 20.0206C89.9564 19.0399 89.6924 17.9083 89.6924 16.6258C89.6924 15.3282 89.9564 14.1891 90.4845 13.2084C91.0126 12.2276 91.7519 11.4732 92.7024 10.9452C93.653 10.4171 94.7468 10.153 95.9841 10.153C97.176 10.153 98.2397 10.4095 99.1752 10.9225C100.126 11.4355 100.857 12.1673 101.37 13.1178C101.899 14.0533 102.163 15.1321 102.163 16.3542ZM98.881 15.4489C98.8659 14.6342 98.5717 13.9854 97.9983 13.5026C97.425 13.0047 96.7234 12.7557 95.8935 12.7557C95.1089 12.7557 94.4451 12.9971 93.9019 13.4799C93.3738 13.9477 93.0494 14.604 92.9287 15.4489H98.881Z" fill="#110B08"/>
</svg>
